<svg width="250" height="316" viewBox="0 0 250 316" fill="none" xmlns="http://www.w3.org/2000/svg">
<g filter="url(#filter0_d_604_31)">
<circle cx="125" cy="121" r="121" fill="#66B2FF"/>
</g>
<path d="M159 199V128L113.969 92L65 127.5V199H185" stroke="white" stroke-width="4"/>
<path d="M89 109.5V71.5L137.969 36L183 72V199" stroke="white" stroke-width="4"/>
<g filter="url(#filter1_d_604_31)">
<g filter="url(#filter2_d_604_31)">
<rect x="126" y="68" width="8.88889" height="8.88889" fill="white"/>
</g>
<g filter="url(#filter3_d_604_31)">
<rect x="137.111" y="79.1111" width="8.88889" height="8.88889" fill="white"/>
</g>
<g filter="url(#filter4_d_604_31)">
<rect x="126" y="79.1111" width="8.88889" height="8.88889" fill="white"/>
</g>
<g filter="url(#filter5_d_604_31)">
<rect x="137.111" y="68" width="8.88889" height="8.88889" fill="white"/>
</g>
</g>
<g filter="url(#filter6_d_604_31)">
<g filter="url(#filter7_d_604_31)">
<rect x="89" y="139" width="8.88889" height="8.88889" fill="white"/>
</g>
<g filter="url(#filter8_d_604_31)">
<rect x="100.111" y="150.111" width="8.88889" height="8.88889" fill="white"/>
</g>
<g filter="url(#filter9_d_604_31)">
<rect x="89" y="150.111" width="8.88889" height="8.88889" fill="white"/>
</g>
<g filter="url(#filter10_d_604_31)">
<rect x="100.111" y="139" width="8.88889" height="8.88889" fill="white"/>
</g>
</g>
<path d="M80.381 304.02C80.513 304.526 80.436 304.988 80.15 305.406C79.864 305.802 79.457 306 78.929 306H77.972C77.664 306 77.367 305.901 77.081 305.703C76.817 305.505 76.63 305.263 76.52 304.977L75.266 301.182C75.178 300.896 74.991 300.753 74.705 300.753H69.062C68.776 300.753 68.589 300.896 68.501 301.182L67.247 304.977C67.137 305.263 66.95 305.505 66.686 305.703C66.422 305.901 66.125 306 65.795 306H64.838C64.31 306 63.903 305.802 63.617 305.406C63.309 304.966 63.243 304.504 63.419 304.02L69.821 284.715C69.931 284.407 70.107 284.165 70.349 283.989C70.613 283.791 70.899 283.692 71.207 283.692H72.56C72.868 283.692 73.154 283.791 73.418 283.989C73.682 284.165 73.858 284.407 73.946 284.715L80.381 304.02ZM73.715 296.43L72.065 291.381C71.955 291.227 71.834 291.227 71.702 291.381L70.052 296.43C70.008 296.54 70.019 296.639 70.085 296.727C70.151 296.815 70.239 296.859 70.349 296.859H73.418C73.528 296.859 73.616 296.815 73.682 296.727C73.748 296.639 73.759 296.54 73.715 296.43ZM98.1889 304.482C98.1889 304.9 98.0349 305.263 97.7269 305.571C97.4409 305.857 97.0889 306 96.6709 306H95.7139C95.1199 306 94.6799 305.747 94.3939 305.241L87.3649 293.064C87.3209 292.976 87.2549 292.954 87.1669 292.998C87.0789 293.02 87.0349 293.064 87.0349 293.13V304.482C87.0349 304.9 86.8809 305.263 86.5729 305.571C86.2869 305.857 85.9459 306 85.5499 306H84.6259C84.2079 306 83.8449 305.857 83.5369 305.571C83.2509 305.263 83.1079 304.9 83.1079 304.482V285.21C83.1079 284.77 83.2509 284.407 83.5369 284.121C83.8449 283.835 84.2079 283.692 84.6259 283.692H85.5829C86.1769 283.692 86.6169 283.945 86.9029 284.451L93.9319 296.628C93.9979 296.716 94.0639 296.749 94.1299 296.727C94.2179 296.705 94.2619 296.65 94.2619 296.562V285.21C94.2619 284.77 94.4049 284.407 94.6909 284.121C94.9989 283.835 95.3619 283.692 95.7799 283.692H96.6709C97.0889 283.692 97.4409 283.835 97.7269 284.121C98.0349 284.407 98.1889 284.77 98.1889 285.21V304.482ZM117.925 304.02C118.057 304.526 117.98 304.988 117.694 305.406C117.408 305.802 117.001 306 116.473 306H115.516C115.208 306 114.911 305.901 114.625 305.703C114.361 305.505 114.174 305.263 114.064 304.977L112.81 301.182C112.722 300.896 112.535 300.753 112.249 300.753H106.606C106.32 300.753 106.133 300.896 106.045 301.182L104.791 304.977C104.681 305.263 104.494 305.505 104.23 305.703C103.966 305.901 103.669 306 103.339 306H102.382C101.854 306 101.447 305.802 101.161 305.406C100.853 304.966 100.787 304.504 100.963 304.02L107.365 284.715C107.475 284.407 107.651 284.165 107.893 283.989C108.157 283.791 108.443 283.692 108.751 283.692H110.104C110.412 283.692 110.698 283.791 110.962 283.989C111.226 284.165 111.402 284.407 111.49 284.715L117.925 304.02ZM111.259 296.43L109.609 291.381C109.499 291.227 109.378 291.227 109.246 291.381L107.596 296.43C107.552 296.54 107.563 296.639 107.629 296.727C107.695 296.815 107.783 296.859 107.893 296.859H110.962C111.072 296.859 111.16 296.815 111.226 296.727C111.292 296.639 111.303 296.54 111.259 296.43ZM134.809 284.583C134.919 284.847 134.952 285.133 134.908 285.441C134.886 285.727 134.765 285.991 134.545 286.233L126.988 294.549C126.79 294.747 126.79 294.956 126.988 295.176L134.545 303.459C134.765 303.679 134.886 303.943 134.908 304.251C134.952 304.537 134.919 304.812 134.809 305.076C134.699 305.362 134.512 305.593 134.248 305.769C134.006 305.923 133.742 306 133.456 306H132.202C131.806 306 131.443 305.835 131.113 305.505L124.876 298.641C124.832 298.575 124.766 298.564 124.678 298.608C124.612 298.63 124.579 298.674 124.579 298.74V304.482C124.579 304.9 124.425 305.263 124.117 305.571C123.831 305.857 123.479 306 123.061 306H122.137C121.719 306 121.367 305.857 121.081 305.571C120.795 305.263 120.652 304.9 120.652 304.482V285.21C120.652 284.77 120.795 284.407 121.081 284.121C121.367 283.835 121.719 283.692 122.137 283.692H123.061C123.479 283.692 123.831 283.835 124.117 284.121C124.425 284.407 124.579 284.77 124.579 285.21V290.919C124.579 291.007 124.612 291.062 124.678 291.084C124.766 291.106 124.832 291.095 124.876 291.051L131.113 284.187C131.443 283.857 131.817 283.692 132.235 283.692H133.456C134.094 283.692 134.545 283.989 134.809 284.583ZM151.792 284.583C151.902 284.847 151.935 285.133 151.891 285.441C151.869 285.727 151.748 285.991 151.528 286.233L143.971 294.549C143.773 294.747 143.773 294.956 143.971 295.176L151.528 303.459C151.748 303.679 151.869 303.943 151.891 304.251C151.935 304.537 151.902 304.812 151.792 305.076C151.682 305.362 151.495 305.593 151.231 305.769C150.989 305.923 150.725 306 150.439 306H149.185C148.789 306 148.426 305.835 148.096 305.505L141.859 298.641C141.815 298.575 141.749 298.564 141.661 298.608C141.595 298.63 141.562 298.674 141.562 298.74V304.482C141.562 304.9 141.408 305.263 141.1 305.571C140.814 305.857 140.462 306 140.044 306H139.12C138.702 306 138.35 305.857 138.064 305.571C137.778 305.263 137.635 304.9 137.635 304.482V285.21C137.635 284.77 137.778 284.407 138.064 284.121C138.35 283.835 138.702 283.692 139.12 283.692H140.044C140.462 283.692 140.814 283.835 141.1 284.121C141.408 284.407 141.562 284.77 141.562 285.21V290.919C141.562 291.007 141.595 291.062 141.661 291.084C141.749 291.106 141.815 291.095 141.859 291.051L148.096 284.187C148.426 283.857 148.8 283.692 149.218 283.692H150.439C151.077 283.692 151.528 283.989 151.792 284.583ZM169.7 301.644C169.7 302.436 169.502 303.162 169.106 303.822C168.71 304.482 168.182 305.01 167.522 305.406C166.862 305.802 166.136 306 165.344 306H159.008C158.216 306 157.479 305.802 156.797 305.406C156.137 305.01 155.609 304.482 155.213 303.822C154.817 303.162 154.619 302.436 154.619 301.644V288.081C154.619 287.267 154.817 286.53 155.213 285.87C155.609 285.21 156.137 284.682 156.797 284.286C157.479 283.89 158.216 283.692 159.008 283.692H165.344C166.136 283.692 166.862 283.89 167.522 284.286C168.182 284.682 168.71 285.21 169.106 285.87C169.502 286.53 169.7 287.267 169.7 288.081V301.644ZM165.773 301.644V288.081C165.773 287.773 165.63 287.619 165.344 287.619H159.008C158.898 287.619 158.788 287.663 158.678 287.751C158.59 287.839 158.546 287.949 158.546 288.081V301.644C158.546 301.754 158.59 301.864 158.678 301.974C158.788 302.062 158.898 302.106 159.008 302.106H165.344C165.454 302.106 165.553 302.062 165.641 301.974C165.729 301.864 165.773 301.754 165.773 301.644ZM187.489 301.644C187.489 302.436 187.291 303.162 186.895 303.822C186.499 304.482 185.971 305.01 185.311 305.406C184.651 305.802 183.925 306 183.133 306H176.797C176.005 306 175.268 305.802 174.586 305.406C173.926 305.01 173.398 304.482 173.002 303.822C172.606 303.162 172.408 302.436 172.408 301.644V300.654C172.408 300.236 172.551 299.884 172.837 299.598C173.145 299.29 173.508 299.136 173.926 299.136H174.85C175.246 299.136 175.587 299.29 175.873 299.598C176.181 299.884 176.335 300.236 176.335 300.654V301.644C176.335 301.754 176.379 301.864 176.467 301.974C176.577 302.062 176.687 302.106 176.797 302.106H183.133C183.243 302.106 183.342 302.062 183.43 301.974C183.518 301.864 183.562 301.754 183.562 301.644V298.641C183.562 298.399 183.452 298.245 183.232 298.179L175.312 295.209C174.432 294.901 173.728 294.362 173.2 293.592C172.672 292.822 172.408 291.975 172.408 291.051V288.081C172.408 287.267 172.606 286.53 173.002 285.87C173.398 285.21 173.926 284.682 174.586 284.286C175.268 283.89 176.005 283.692 176.797 283.692H183.133C183.925 283.692 184.651 283.89 185.311 284.286C185.971 284.682 186.499 285.21 186.895 285.87C187.291 286.53 187.489 287.267 187.489 288.081V288.972C187.489 289.39 187.335 289.742 187.027 290.028C186.741 290.314 186.389 290.457 185.971 290.457H185.08C184.662 290.457 184.299 290.314 183.991 290.028C183.705 289.742 183.562 289.39 183.562 288.972V288.081C183.562 287.773 183.419 287.619 183.133 287.619H176.797C176.687 287.619 176.577 287.663 176.467 287.751C176.379 287.839 176.335 287.949 176.335 288.081V291.051C176.335 291.315 176.445 291.48 176.665 291.546L184.618 294.516C185.476 294.824 186.169 295.363 186.697 296.133C187.225 296.903 187.489 297.739 187.489 298.641V301.644Z" fill="#66B2FF"/>
<defs>
<filter id="filter0_d_604_31" x="0" y="0" width="250" height="250" filterUnits="userSpaceOnUse" color-interpolation-filters="sRGB">
<feFlood flood-opacity="0" result="BackgroundImageFix"/>
<feColorMatrix in="SourceAlpha" type="matrix" values="0 0 0 0 0 0 0 0 0 0 0 0 0 0 0 0 0 0 127 0" result="hardAlpha"/>
<feOffset dy="4"/>
<feGaussianBlur stdDeviation="2"/>
<feComposite in2="hardAlpha" operator="out"/>
<feColorMatrix type="matrix" values="0 0 0 0 0 0 0 0 0 0 0 0 0 0 0 0 0 0 0.25 0"/>
<feBlend mode="normal" in2="BackgroundImageFix" result="effect1_dropShadow_604_31"/>
<feBlend mode="normal" in="SourceGraphic" in2="effect1_dropShadow_604_31" result="shape"/>
</filter>
<filter id="filter1_d_604_31" x="126" y="68" width="22" height="22" filterUnits="userSpaceOnUse" color-interpolation-filters="sRGB">
<feFlood flood-opacity="0" result="BackgroundImageFix"/>
<feColorMatrix in="SourceAlpha" type="matrix" values="0 0 0 0 0 0 0 0 0 0 0 0 0 0 0 0 0 0 127 0" result="hardAlpha"/>
<feOffset dx="1" dy="1"/>
<feGaussianBlur stdDeviation="0.5"/>
<feComposite in2="hardAlpha" operator="out"/>
<feColorMatrix type="matrix" values="0 0 0 0 0 0 0 0 0 0 0 0 0 0 0 0 0 0 0.25 0"/>
<feBlend mode="normal" in2="BackgroundImageFix" result="effect1_dropShadow_604_31"/>
<feBlend mode="normal" in="SourceGraphic" in2="effect1_dropShadow_604_31" result="shape"/>
</filter>
<filter id="filter2_d_604_31" x="126" y="68" width="10.8889" height="10.8889" filterUnits="userSpaceOnUse" color-interpolation-filters="sRGB">
<feFlood flood-opacity="0" result="BackgroundImageFix"/>
<feColorMatrix in="SourceAlpha" type="matrix" values="0 0 0 0 0 0 0 0 0 0 0 0 0 0 0 0 0 0 127 0" result="hardAlpha"/>
<feOffset dx="1" dy="1"/>
<feGaussianBlur stdDeviation="0.5"/>
<feComposite in2="hardAlpha" operator="out"/>
<feColorMatrix type="matrix" values="0 0 0 0 0 0 0 0 0 0 0 0 0 0 0 0 0 0 0.25 0"/>
<feBlend mode="normal" in2="BackgroundImageFix" result="effect1_dropShadow_604_31"/>
<feBlend mode="normal" in="SourceGraphic" in2="effect1_dropShadow_604_31" result="shape"/>
</filter>
<filter id="filter3_d_604_31" x="137.111" y="79.1111" width="10.8889" height="10.8889" filterUnits="userSpaceOnUse" color-interpolation-filters="sRGB">
<feFlood flood-opacity="0" result="BackgroundImageFix"/>
<feColorMatrix in="SourceAlpha" type="matrix" values="0 0 0 0 0 0 0 0 0 0 0 0 0 0 0 0 0 0 127 0" result="hardAlpha"/>
<feOffset dx="1" dy="1"/>
<feGaussianBlur stdDeviation="0.5"/>
<feComposite in2="hardAlpha" operator="out"/>
<feColorMatrix type="matrix" values="0 0 0 0 0 0 0 0 0 0 0 0 0 0 0 0 0 0 0.25 0"/>
<feBlend mode="normal" in2="BackgroundImageFix" result="effect1_dropShadow_604_31"/>
<feBlend mode="normal" in="SourceGraphic" in2="effect1_dropShadow_604_31" result="shape"/>
</filter>
<filter id="filter4_d_604_31" x="126" y="79.1111" width="10.8889" height="10.8889" filterUnits="userSpaceOnUse" color-interpolation-filters="sRGB">
<feFlood flood-opacity="0" result="BackgroundImageFix"/>
<feColorMatrix in="SourceAlpha" type="matrix" values="0 0 0 0 0 0 0 0 0 0 0 0 0 0 0 0 0 0 127 0" result="hardAlpha"/>
<feOffset dx="1" dy="1"/>
<feGaussianBlur stdDeviation="0.5"/>
<feComposite in2="hardAlpha" operator="out"/>
<feColorMatrix type="matrix" values="0 0 0 0 0 0 0 0 0 0 0 0 0 0 0 0 0 0 0.25 0"/>
<feBlend mode="normal" in2="BackgroundImageFix" result="effect1_dropShadow_604_31"/>
<feBlend mode="normal" in="SourceGraphic" in2="effect1_dropShadow_604_31" result="shape"/>
</filter>
<filter id="filter5_d_604_31" x="137.111" y="68" width="10.8889" height="10.8889" filterUnits="userSpaceOnUse" color-interpolation-filters="sRGB">
<feFlood flood-opacity="0" result="BackgroundImageFix"/>
<feColorMatrix in="SourceAlpha" type="matrix" values="0 0 0 0 0 0 0 0 0 0 0 0 0 0 0 0 0 0 127 0" result="hardAlpha"/>
<feOffset dx="1" dy="1"/>
<feGaussianBlur stdDeviation="0.5"/>
<feComposite in2="hardAlpha" operator="out"/>
<feColorMatrix type="matrix" values="0 0 0 0 0 0 0 0 0 0 0 0 0 0 0 0 0 0 0.25 0"/>
<feBlend mode="normal" in2="BackgroundImageFix" result="effect1_dropShadow_604_31"/>
<feBlend mode="normal" in="SourceGraphic" in2="effect1_dropShadow_604_31" result="shape"/>
</filter>
<filter id="filter6_d_604_31" x="89" y="139" width="22" height="22" filterUnits="userSpaceOnUse" color-interpolation-filters="sRGB">
<feFlood flood-opacity="0" result="BackgroundImageFix"/>
<feColorMatrix in="SourceAlpha" type="matrix" values="0 0 0 0 0 0 0 0 0 0 0 0 0 0 0 0 0 0 127 0" result="hardAlpha"/>
<feOffset dx="1" dy="1"/>
<feGaussianBlur stdDeviation="0.5"/>
<feComposite in2="hardAlpha" operator="out"/>
<feColorMatrix type="matrix" values="0 0 0 0 0 0 0 0 0 0 0 0 0 0 0 0 0 0 0.25 0"/>
<feBlend mode="normal" in2="BackgroundImageFix" result="effect1_dropShadow_604_31"/>
<feBlend mode="normal" in="SourceGraphic" in2="effect1_dropShadow_604_31" result="shape"/>
</filter>
<filter id="filter7_d_604_31" x="89" y="139" width="10.8889" height="10.8889" filterUnits="userSpaceOnUse" color-interpolation-filters="sRGB">
<feFlood flood-opacity="0" result="BackgroundImageFix"/>
<feColorMatrix in="SourceAlpha" type="matrix" values="0 0 0 0 0 0 0 0 0 0 0 0 0 0 0 0 0 0 127 0" result="hardAlpha"/>
<feOffset dx="1" dy="1"/>
<feGaussianBlur stdDeviation="0.5"/>
<feComposite in2="hardAlpha" operator="out"/>
<feColorMatrix type="matrix" values="0 0 0 0 0 0 0 0 0 0 0 0 0 0 0 0 0 0 0.25 0"/>
<feBlend mode="normal" in2="BackgroundImageFix" result="effect1_dropShadow_604_31"/>
<feBlend mode="normal" in="SourceGraphic" in2="effect1_dropShadow_604_31" result="shape"/>
</filter>
<filter id="filter8_d_604_31" x="100.111" y="150.111" width="10.8889" height="10.8889" filterUnits="userSpaceOnUse" color-interpolation-filters="sRGB">
<feFlood flood-opacity="0" result="BackgroundImageFix"/>
<feColorMatrix in="SourceAlpha" type="matrix" values="0 0 0 0 0 0 0 0 0 0 0 0 0 0 0 0 0 0 127 0" result="hardAlpha"/>
<feOffset dx="1" dy="1"/>
<feGaussianBlur stdDeviation="0.5"/>
<feComposite in2="hardAlpha" operator="out"/>
<feColorMatrix type="matrix" values="0 0 0 0 0 0 0 0 0 0 0 0 0 0 0 0 0 0 0.25 0"/>
<feBlend mode="normal" in2="BackgroundImageFix" result="effect1_dropShadow_604_31"/>
<feBlend mode="normal" in="SourceGraphic" in2="effect1_dropShadow_604_31" result="shape"/>
</filter>
<filter id="filter9_d_604_31" x="89" y="150.111" width="10.8889" height="10.8889" filterUnits="userSpaceOnUse" color-interpolation-filters="sRGB">
<feFlood flood-opacity="0" result="BackgroundImageFix"/>
<feColorMatrix in="SourceAlpha" type="matrix" values="0 0 0 0 0 0 0 0 0 0 0 0 0 0 0 0 0 0 127 0" result="hardAlpha"/>
<feOffset dx="1" dy="1"/>
<feGaussianBlur stdDeviation="0.5"/>
<feComposite in2="hardAlpha" operator="out"/>
<feColorMatrix type="matrix" values="0 0 0 0 0 0 0 0 0 0 0 0 0 0 0 0 0 0 0.25 0"/>
<feBlend mode="normal" in2="BackgroundImageFix" result="effect1_dropShadow_604_31"/>
<feBlend mode="normal" in="SourceGraphic" in2="effect1_dropShadow_604_31" result="shape"/>
</filter>
<filter id="filter10_d_604_31" x="100.111" y="139" width="10.8889" height="10.8889" filterUnits="userSpaceOnUse" color-interpolation-filters="sRGB">
<feFlood flood-opacity="0" result="BackgroundImageFix"/>
<feColorMatrix in="SourceAlpha" type="matrix" values="0 0 0 0 0 0 0 0 0 0 0 0 0 0 0 0 0 0 127 0" result="hardAlpha"/>
<feOffset dx="1" dy="1"/>
<feGaussianBlur stdDeviation="0.5"/>
<feComposite in2="hardAlpha" operator="out"/>
<feColorMatrix type="matrix" values="0 0 0 0 0 0 0 0 0 0 0 0 0 0 0 0 0 0 0.25 0"/>
<feBlend mode="normal" in2="BackgroundImageFix" result="effect1_dropShadow_604_31"/>
<feBlend mode="normal" in="SourceGraphic" in2="effect1_dropShadow_604_31" result="shape"/>
</filter>
</defs>
</svg>
