<svg width="283" height="108" viewBox="0 0 283 108" fill="none" xmlns="http://www.w3.org/2000/svg">
<g filter="url(#filter0_d_1912_1791)">
<ellipse cx="54.3778" cy="50" rx="50.3778" ry="50" fill="#66B2FF"/>
</g>
<path d="M68.5336 82.2305V52.8917L49.7852 38.0156L29.3971 52.685V82.2305H79.3586" stroke="white" stroke-width="4"/>
<path d="M39.3893 45.2469V29.5444L59.7774 14.875L78.5258 29.751V82.2304" stroke="white" stroke-width="4"/>
<g filter="url(#filter1_d_1912_1791)">
<g filter="url(#filter2_d_1912_1791)">
<rect x="54.7941" y="28.0996" width="3.70085" height="3.67309" fill="white"/>
</g>
<g filter="url(#filter3_d_1912_1791)">
<rect x="59.4203" y="32.6914" width="3.70085" height="3.67309" fill="white"/>
</g>
<g filter="url(#filter4_d_1912_1791)">
<rect x="54.7942" y="32.6914" width="3.70085" height="3.67309" fill="white"/>
</g>
<g filter="url(#filter5_d_1912_1791)">
<rect x="59.4203" y="28.0996" width="3.70085" height="3.67309" fill="white"/>
</g>
</g>
<g filter="url(#filter6_d_1912_1791)">
<g filter="url(#filter7_d_1912_1791)">
<rect x="39.3893" y="57.4355" width="3.70085" height="3.67309" fill="white"/>
</g>
<g filter="url(#filter8_d_1912_1791)">
<rect x="44.0154" y="62.0273" width="3.70085" height="3.67309" fill="white"/>
</g>
<g filter="url(#filter9_d_1912_1791)">
<rect x="39.3893" y="62.0273" width="3.70085" height="3.67309" fill="white"/>
</g>
<g filter="url(#filter10_d_1912_1791)">
<rect x="44.0154" y="57.4355" width="3.70085" height="3.67309" fill="white"/>
</g>
</g>
<path d="M140.28 60.6C140.44 61.2133 140.347 61.7733 140 62.28C139.653 62.76 139.16 63 138.52 63H137.36C136.987 63 136.627 62.88 136.28 62.64C135.96 62.4 135.733 62.1067 135.6 61.76L134.08 57.16C133.973 56.8133 133.747 56.64 133.4 56.64H126.56C126.213 56.64 125.987 56.8133 125.88 57.16L124.36 61.76C124.227 62.1067 124 62.4 123.68 62.64C123.36 62.88 123 63 122.6 63H121.44C120.8 63 120.307 62.76 119.96 62.28C119.587 61.7467 119.507 61.1867 119.72 60.6L127.48 37.2C127.613 36.8267 127.827 36.5333 128.12 36.32C128.44 36.08 128.787 35.96 129.16 35.96H130.8C131.173 35.96 131.52 36.08 131.84 36.32C132.16 36.5333 132.373 36.8267 132.48 37.2L140.28 60.6ZM132.2 51.4L130.2 45.28C130.067 45.0933 129.92 45.0933 129.76 45.28L127.76 51.4C127.707 51.5333 127.72 51.6533 127.8 51.76C127.88 51.8667 127.987 51.92 128.12 51.92H131.84C131.973 51.92 132.08 51.8667 132.16 51.76C132.24 51.6533 132.253 51.5333 132.2 51.4ZM161.865 61.16C161.865 61.6667 161.679 62.1067 161.305 62.48C160.959 62.8267 160.532 63 160.025 63H158.865C158.145 63 157.612 62.6933 157.265 62.08L148.745 47.32C148.692 47.2133 148.612 47.1867 148.505 47.24C148.399 47.2667 148.345 47.32 148.345 47.4V61.16C148.345 61.6667 148.159 62.1067 147.785 62.48C147.439 62.8267 147.025 63 146.545 63H145.425C144.919 63 144.479 62.8267 144.105 62.48C143.759 62.1067 143.585 61.6667 143.585 61.16V37.8C143.585 37.2667 143.759 36.8267 144.105 36.48C144.479 36.1333 144.919 35.96 145.425 35.96H146.585C147.305 35.96 147.839 36.2667 148.185 36.88L156.705 51.64C156.785 51.7467 156.865 51.7867 156.945 51.76C157.052 51.7333 157.105 51.6667 157.105 51.56V37.8C157.105 37.2667 157.279 36.8267 157.625 36.48C157.999 36.1333 158.439 35.96 158.945 35.96H160.025C160.532 35.96 160.959 36.1333 161.305 36.48C161.679 36.8267 161.865 37.2667 161.865 37.8V61.16ZM185.788 60.6C185.948 61.2133 185.854 61.7733 185.508 62.28C185.161 62.76 184.668 63 184.028 63H182.868C182.494 63 182.134 62.88 181.788 62.64C181.468 62.4 181.241 62.1067 181.108 61.76L179.588 57.16C179.481 56.8133 179.254 56.64 178.908 56.64H172.068C171.721 56.64 171.494 56.8133 171.388 57.16L169.868 61.76C169.734 62.1067 169.508 62.4 169.188 62.64C168.868 62.88 168.508 63 168.108 63H166.948C166.308 63 165.814 62.76 165.468 62.28C165.094 61.7467 165.014 61.1867 165.228 60.6L172.988 37.2C173.121 36.8267 173.334 36.5333 173.628 36.32C173.948 36.08 174.294 35.96 174.668 35.96H176.308C176.681 35.96 177.028 36.08 177.348 36.32C177.668 36.5333 177.881 36.8267 177.988 37.2L185.788 60.6ZM177.708 51.4L175.708 45.28C175.574 45.0933 175.428 45.0933 175.268 45.28L173.268 51.4C173.214 51.5333 173.228 51.6533 173.308 51.76C173.388 51.8667 173.494 51.92 173.628 51.92H177.348C177.481 51.92 177.588 51.8667 177.668 51.76C177.748 51.6533 177.761 51.5333 177.708 51.4ZM206.253 37.04C206.386 37.36 206.426 37.7067 206.373 38.08C206.346 38.4267 206.2 38.7467 205.933 39.04L196.773 49.12C196.533 49.36 196.533 49.6133 196.773 49.88L205.933 59.92C206.2 60.1867 206.346 60.5067 206.373 60.88C206.426 61.2267 206.386 61.56 206.253 61.88C206.12 62.2267 205.893 62.5067 205.573 62.72C205.28 62.9067 204.96 63 204.613 63H203.093C202.613 63 202.173 62.8 201.773 62.4L194.213 54.08C194.16 54 194.08 53.9867 193.973 54.04C193.893 54.0667 193.853 54.12 193.853 54.2V61.16C193.853 61.6667 193.666 62.1067 193.293 62.48C192.946 62.8267 192.52 63 192.013 63H190.893C190.386 63 189.96 62.8267 189.613 62.48C189.266 62.1067 189.093 61.6667 189.093 61.16V37.8C189.093 37.2667 189.266 36.8267 189.613 36.48C189.96 36.1333 190.386 35.96 190.893 35.96H192.013C192.52 35.96 192.946 36.1333 193.293 36.48C193.666 36.8267 193.853 37.2667 193.853 37.8V44.72C193.853 44.8267 193.893 44.8933 193.973 44.92C194.08 44.9467 194.16 44.9333 194.213 44.88L201.773 36.56C202.173 36.16 202.626 35.96 203.133 35.96H204.613C205.386 35.96 205.933 36.32 206.253 37.04ZM226.839 37.04C226.972 37.36 227.012 37.7067 226.959 38.08C226.932 38.4267 226.786 38.7467 226.519 39.04L217.359 49.12C217.119 49.36 217.119 49.6133 217.359 49.88L226.519 59.92C226.786 60.1867 226.932 60.5067 226.959 60.88C227.012 61.2267 226.972 61.56 226.839 61.88C226.706 62.2267 226.479 62.5067 226.159 62.72C225.866 62.9067 225.546 63 225.199 63H223.679C223.199 63 222.759 62.8 222.359 62.4L214.799 54.08C214.746 54 214.666 53.9867 214.559 54.04C214.479 54.0667 214.439 54.12 214.439 54.2V61.16C214.439 61.6667 214.252 62.1067 213.879 62.48C213.532 62.8267 213.106 63 212.599 63H211.479C210.972 63 210.546 62.8267 210.199 62.48C209.852 62.1067 209.679 61.6667 209.679 61.16V37.8C209.679 37.2667 209.852 36.8267 210.199 36.48C210.546 36.1333 210.972 35.96 211.479 35.96H212.599C213.106 35.96 213.532 36.1333 213.879 36.48C214.252 36.8267 214.439 37.2667 214.439 37.8V44.72C214.439 44.8267 214.479 44.8933 214.559 44.92C214.666 44.9467 214.746 44.9333 214.799 44.88L222.359 36.56C222.759 36.16 223.212 35.96 223.719 35.96H225.199C225.972 35.96 226.519 36.32 226.839 37.04ZM248.545 57.72C248.545 58.68 248.305 59.56 247.825 60.36C247.345 61.16 246.705 61.8 245.905 62.28C245.105 62.76 244.225 63 243.265 63H235.585C234.625 63 233.732 62.76 232.905 62.28C232.105 61.8 231.465 61.16 230.985 60.36C230.505 59.56 230.265 58.68 230.265 57.72V41.28C230.265 40.2933 230.505 39.4 230.985 38.6C231.465 37.8 232.105 37.16 232.905 36.68C233.732 36.2 234.625 35.96 235.585 35.96H243.265C244.225 35.96 245.105 36.2 245.905 36.68C246.705 37.16 247.345 37.8 247.825 38.6C248.305 39.4 248.545 40.2933 248.545 41.28V57.72ZM243.785 57.72V41.28C243.785 40.9067 243.612 40.72 243.265 40.72H235.585C235.452 40.72 235.318 40.7733 235.185 40.88C235.078 40.9867 235.025 41.12 235.025 41.28V57.72C235.025 57.8533 235.078 57.9867 235.185 58.12C235.318 58.2267 235.452 58.28 235.585 58.28H243.265C243.398 58.28 243.518 58.2267 243.625 58.12C243.732 57.9867 243.785 57.8533 243.785 57.72ZM270.108 57.72C270.108 58.68 269.868 59.56 269.388 60.36C268.908 61.16 268.268 61.8 267.468 62.28C266.668 62.76 265.788 63 264.828 63H257.148C256.188 63 255.294 62.76 254.468 62.28C253.668 61.8 253.028 61.16 252.548 60.36C252.068 59.56 251.828 58.68 251.828 57.72V56.52C251.828 56.0133 252.001 55.5867 252.348 55.24C252.721 54.8667 253.161 54.68 253.668 54.68H254.788C255.268 54.68 255.681 54.8667 256.028 55.24C256.401 55.5867 256.588 56.0133 256.588 56.52V57.72C256.588 57.8533 256.641 57.9867 256.748 58.12C256.881 58.2267 257.014 58.28 257.148 58.28H264.828C264.961 58.28 265.081 58.2267 265.188 58.12C265.294 57.9867 265.348 57.8533 265.348 57.72V54.08C265.348 53.7867 265.214 53.6 264.948 53.52L255.348 49.92C254.281 49.5467 253.428 48.8933 252.788 47.96C252.148 47.0267 251.828 46 251.828 44.88V41.28C251.828 40.2933 252.068 39.4 252.548 38.6C253.028 37.8 253.668 37.16 254.468 36.68C255.294 36.2 256.188 35.96 257.148 35.96H264.828C265.788 35.96 266.668 36.2 267.468 36.68C268.268 37.16 268.908 37.8 269.388 38.6C269.868 39.4 270.108 40.2933 270.108 41.28V42.36C270.108 42.8667 269.921 43.2933 269.548 43.64C269.201 43.9867 268.774 44.16 268.268 44.16H267.188C266.681 44.16 266.241 43.9867 265.868 43.64C265.521 43.2933 265.348 42.8667 265.348 42.36V41.28C265.348 40.9067 265.174 40.72 264.828 40.72H257.148C257.014 40.72 256.881 40.7733 256.748 40.88C256.641 40.9867 256.588 41.12 256.588 41.28V44.88C256.588 45.2 256.721 45.4 256.988 45.48L266.628 49.08C267.668 49.4533 268.508 50.1067 269.148 51.04C269.788 51.9733 270.108 52.9867 270.108 54.08V57.72Z" fill="#66B2FF"/>
<defs>
<filter id="filter0_d_1912_1791" x="0" y="0" width="108.756" height="108" filterUnits="userSpaceOnUse" color-interpolation-filters="sRGB">
<feFlood flood-opacity="0" result="BackgroundImageFix"/>
<feColorMatrix in="SourceAlpha" type="matrix" values="0 0 0 0 0 0 0 0 0 0 0 0 0 0 0 0 0 0 127 0" result="hardAlpha"/>
<feOffset dy="4"/>
<feGaussianBlur stdDeviation="2"/>
<feComposite in2="hardAlpha" operator="out"/>
<feColorMatrix type="matrix" values="0 0 0 0 0 0 0 0 0 0 0 0 0 0 0 0 0 0 0.25 0"/>
<feBlend mode="normal" in2="BackgroundImageFix" result="effect1_dropShadow_1912_1791"/>
<feBlend mode="normal" in="SourceGraphic" in2="effect1_dropShadow_1912_1791" result="shape"/>
</filter>
<filter id="filter1_d_1912_1791" x="54.7941" y="28.0996" width="10.327" height="10.2656" filterUnits="userSpaceOnUse" color-interpolation-filters="sRGB">
<feFlood flood-opacity="0" result="BackgroundImageFix"/>
<feColorMatrix in="SourceAlpha" type="matrix" values="0 0 0 0 0 0 0 0 0 0 0 0 0 0 0 0 0 0 127 0" result="hardAlpha"/>
<feOffset dx="1" dy="1"/>
<feGaussianBlur stdDeviation="0.5"/>
<feComposite in2="hardAlpha" operator="out"/>
<feColorMatrix type="matrix" values="0 0 0 0 0 0 0 0 0 0 0 0 0 0 0 0 0 0 0.25 0"/>
<feBlend mode="normal" in2="BackgroundImageFix" result="effect1_dropShadow_1912_1791"/>
<feBlend mode="normal" in="SourceGraphic" in2="effect1_dropShadow_1912_1791" result="shape"/>
</filter>
<filter id="filter2_d_1912_1791" x="54.7941" y="28.0996" width="5.70087" height="5.67383" filterUnits="userSpaceOnUse" color-interpolation-filters="sRGB">
<feFlood flood-opacity="0" result="BackgroundImageFix"/>
<feColorMatrix in="SourceAlpha" type="matrix" values="0 0 0 0 0 0 0 0 0 0 0 0 0 0 0 0 0 0 127 0" result="hardAlpha"/>
<feOffset dx="1" dy="1"/>
<feGaussianBlur stdDeviation="0.5"/>
<feComposite in2="hardAlpha" operator="out"/>
<feColorMatrix type="matrix" values="0 0 0 0 0 0 0 0 0 0 0 0 0 0 0 0 0 0 0.25 0"/>
<feBlend mode="normal" in2="BackgroundImageFix" result="effect1_dropShadow_1912_1791"/>
<feBlend mode="normal" in="SourceGraphic" in2="effect1_dropShadow_1912_1791" result="shape"/>
</filter>
<filter id="filter3_d_1912_1791" x="59.4203" y="32.6914" width="5.70087" height="5.67383" filterUnits="userSpaceOnUse" color-interpolation-filters="sRGB">
<feFlood flood-opacity="0" result="BackgroundImageFix"/>
<feColorMatrix in="SourceAlpha" type="matrix" values="0 0 0 0 0 0 0 0 0 0 0 0 0 0 0 0 0 0 127 0" result="hardAlpha"/>
<feOffset dx="1" dy="1"/>
<feGaussianBlur stdDeviation="0.5"/>
<feComposite in2="hardAlpha" operator="out"/>
<feColorMatrix type="matrix" values="0 0 0 0 0 0 0 0 0 0 0 0 0 0 0 0 0 0 0.25 0"/>
<feBlend mode="normal" in2="BackgroundImageFix" result="effect1_dropShadow_1912_1791"/>
<feBlend mode="normal" in="SourceGraphic" in2="effect1_dropShadow_1912_1791" result="shape"/>
</filter>
<filter id="filter4_d_1912_1791" x="54.7942" y="32.6914" width="5.70087" height="5.67383" filterUnits="userSpaceOnUse" color-interpolation-filters="sRGB">
<feFlood flood-opacity="0" result="BackgroundImageFix"/>
<feColorMatrix in="SourceAlpha" type="matrix" values="0 0 0 0 0 0 0 0 0 0 0 0 0 0 0 0 0 0 127 0" result="hardAlpha"/>
<feOffset dx="1" dy="1"/>
<feGaussianBlur stdDeviation="0.5"/>
<feComposite in2="hardAlpha" operator="out"/>
<feColorMatrix type="matrix" values="0 0 0 0 0 0 0 0 0 0 0 0 0 0 0 0 0 0 0.25 0"/>
<feBlend mode="normal" in2="BackgroundImageFix" result="effect1_dropShadow_1912_1791"/>
<feBlend mode="normal" in="SourceGraphic" in2="effect1_dropShadow_1912_1791" result="shape"/>
</filter>
<filter id="filter5_d_1912_1791" x="59.4203" y="28.0996" width="5.70087" height="5.67383" filterUnits="userSpaceOnUse" color-interpolation-filters="sRGB">
<feFlood flood-opacity="0" result="BackgroundImageFix"/>
<feColorMatrix in="SourceAlpha" type="matrix" values="0 0 0 0 0 0 0 0 0 0 0 0 0 0 0 0 0 0 127 0" result="hardAlpha"/>
<feOffset dx="1" dy="1"/>
<feGaussianBlur stdDeviation="0.5"/>
<feComposite in2="hardAlpha" operator="out"/>
<feColorMatrix type="matrix" values="0 0 0 0 0 0 0 0 0 0 0 0 0 0 0 0 0 0 0.25 0"/>
<feBlend mode="normal" in2="BackgroundImageFix" result="effect1_dropShadow_1912_1791"/>
<feBlend mode="normal" in="SourceGraphic" in2="effect1_dropShadow_1912_1791" result="shape"/>
</filter>
<filter id="filter6_d_1912_1791" x="39.3893" y="57.4355" width="10.3269" height="10.2656" filterUnits="userSpaceOnUse" color-interpolation-filters="sRGB">
<feFlood flood-opacity="0" result="BackgroundImageFix"/>
<feColorMatrix in="SourceAlpha" type="matrix" values="0 0 0 0 0 0 0 0 0 0 0 0 0 0 0 0 0 0 127 0" result="hardAlpha"/>
<feOffset dx="1" dy="1"/>
<feGaussianBlur stdDeviation="0.5"/>
<feComposite in2="hardAlpha" operator="out"/>
<feColorMatrix type="matrix" values="0 0 0 0 0 0 0 0 0 0 0 0 0 0 0 0 0 0 0.25 0"/>
<feBlend mode="normal" in2="BackgroundImageFix" result="effect1_dropShadow_1912_1791"/>
<feBlend mode="normal" in="SourceGraphic" in2="effect1_dropShadow_1912_1791" result="shape"/>
</filter>
<filter id="filter7_d_1912_1791" x="39.3893" y="57.4355" width="5.70087" height="5.67383" filterUnits="userSpaceOnUse" color-interpolation-filters="sRGB">
<feFlood flood-opacity="0" result="BackgroundImageFix"/>
<feColorMatrix in="SourceAlpha" type="matrix" values="0 0 0 0 0 0 0 0 0 0 0 0 0 0 0 0 0 0 127 0" result="hardAlpha"/>
<feOffset dx="1" dy="1"/>
<feGaussianBlur stdDeviation="0.5"/>
<feComposite in2="hardAlpha" operator="out"/>
<feColorMatrix type="matrix" values="0 0 0 0 0 0 0 0 0 0 0 0 0 0 0 0 0 0 0.25 0"/>
<feBlend mode="normal" in2="BackgroundImageFix" result="effect1_dropShadow_1912_1791"/>
<feBlend mode="normal" in="SourceGraphic" in2="effect1_dropShadow_1912_1791" result="shape"/>
</filter>
<filter id="filter8_d_1912_1791" x="44.0154" y="62.0273" width="5.70087" height="5.67383" filterUnits="userSpaceOnUse" color-interpolation-filters="sRGB">
<feFlood flood-opacity="0" result="BackgroundImageFix"/>
<feColorMatrix in="SourceAlpha" type="matrix" values="0 0 0 0 0 0 0 0 0 0 0 0 0 0 0 0 0 0 127 0" result="hardAlpha"/>
<feOffset dx="1" dy="1"/>
<feGaussianBlur stdDeviation="0.5"/>
<feComposite in2="hardAlpha" operator="out"/>
<feColorMatrix type="matrix" values="0 0 0 0 0 0 0 0 0 0 0 0 0 0 0 0 0 0 0.25 0"/>
<feBlend mode="normal" in2="BackgroundImageFix" result="effect1_dropShadow_1912_1791"/>
<feBlend mode="normal" in="SourceGraphic" in2="effect1_dropShadow_1912_1791" result="shape"/>
</filter>
<filter id="filter9_d_1912_1791" x="39.3893" y="62.0273" width="5.70087" height="5.67383" filterUnits="userSpaceOnUse" color-interpolation-filters="sRGB">
<feFlood flood-opacity="0" result="BackgroundImageFix"/>
<feColorMatrix in="SourceAlpha" type="matrix" values="0 0 0 0 0 0 0 0 0 0 0 0 0 0 0 0 0 0 127 0" result="hardAlpha"/>
<feOffset dx="1" dy="1"/>
<feGaussianBlur stdDeviation="0.5"/>
<feComposite in2="hardAlpha" operator="out"/>
<feColorMatrix type="matrix" values="0 0 0 0 0 0 0 0 0 0 0 0 0 0 0 0 0 0 0.25 0"/>
<feBlend mode="normal" in2="BackgroundImageFix" result="effect1_dropShadow_1912_1791"/>
<feBlend mode="normal" in="SourceGraphic" in2="effect1_dropShadow_1912_1791" result="shape"/>
</filter>
<filter id="filter10_d_1912_1791" x="44.0154" y="57.4355" width="5.70087" height="5.67383" filterUnits="userSpaceOnUse" color-interpolation-filters="sRGB">
<feFlood flood-opacity="0" result="BackgroundImageFix"/>
<feColorMatrix in="SourceAlpha" type="matrix" values="0 0 0 0 0 0 0 0 0 0 0 0 0 0 0 0 0 0 127 0" result="hardAlpha"/>
<feOffset dx="1" dy="1"/>
<feGaussianBlur stdDeviation="0.5"/>
<feComposite in2="hardAlpha" operator="out"/>
<feColorMatrix type="matrix" values="0 0 0 0 0 0 0 0 0 0 0 0 0 0 0 0 0 0 0.25 0"/>
<feBlend mode="normal" in2="BackgroundImageFix" result="effect1_dropShadow_1912_1791"/>
<feBlend mode="normal" in="SourceGraphic" in2="effect1_dropShadow_1912_1791" result="shape"/>
</filter>
</defs>
</svg>
