<svg width="65" height="65" viewBox="0 0 65 65" fill="none" xmlns="http://www.w3.org/2000/svg">
<path opacity="0.4" d="M59.5827 21.1514V37.6452L55.1681 33.8535C53.0556 32.0389 49.6431 32.0389 47.5306 33.8535L36.2639 43.5223C34.1514 45.3368 30.7389 45.3368 28.6264 43.5223L27.7056 42.7639C25.7827 41.0848 22.7223 40.9223 20.5556 42.3848L7.2306 51.3223L6.93268 51.5389C5.9306 49.3723 5.41602 46.7994 5.41602 43.8473V21.1514C5.41602 11.2931 11.2931 5.41602 21.1514 5.41602H43.8473C53.7056 5.41602 59.5827 11.2931 59.5827 21.1514Z" fill="#3399FF"/>
<path d="M24.3755 28.1124C27.9355 28.1124 30.8214 25.2265 30.8214 21.6665C30.8214 18.1066 27.9355 15.2207 24.3755 15.2207C20.8156 15.2207 17.9297 18.1066 17.9297 21.6665C17.9297 25.2265 20.8156 28.1124 24.3755 28.1124Z" fill="#3399FF"/>
<path d="M59.5836 37.6467V43.8488C59.5836 53.7072 53.7065 59.5842 43.8482 59.5842H21.1523C14.2461 59.5842 9.26276 56.6863 6.93359 51.5405L7.23151 51.3238L20.5565 42.3863C22.7232 40.9238 25.7836 41.0863 27.7065 42.7655L28.6273 43.5238C30.7398 45.3384 34.1523 45.3384 36.2648 43.5238L47.5315 33.8551C49.644 32.0405 53.0565 32.0405 55.169 33.8551L59.5836 37.6467Z" fill="#3399FF"/>
</svg>
