<svg width="24" height="24" viewBox="0 0 24 24" fill="none" xmlns="http://www.w3.org/2000/svg">
<path d="M22 8.68961C22 9.87961 21.81 10.9796 21.48 11.9996H2.52C2.19 10.9796 2 9.87961 2 8.68961C2 5.59961 4.49 3.09961 7.56 3.09961C9.37 3.09961 10.99 3.97961 12 5.32961C13.01 3.97961 14.63 3.09961 16.44 3.09961C19.51 3.09961 22 5.59961 22 8.68961Z" fill="#386BF6"/>
<path d="M21.4795 12C19.8995 17 15.0295 19.99 12.6195 20.81C12.2795 20.93 11.7195 20.93 11.3795 20.81C8.96953 19.99 4.09953 17 2.51953 12H21.4795Z" fill="#386BF6"/>
</svg>
