<svg width="24" height="25" viewBox="0 0 24 25" fill="none" xmlns="http://www.w3.org/2000/svg">
<path d="M20.0402 7.31969L14.2802 3.28969C12.7102 2.18969 10.3002 2.24969 8.79023 3.41969L3.78023 7.32969C2.78023 8.10969 1.99023 9.70969 1.99023 10.9697V17.8697C1.99023 20.4197 4.06023 22.4997 6.61023 22.4997H17.3902C19.9402 22.4997 22.0102 20.4297 22.0102 17.8797V11.0997C22.0102 9.74969 21.1402 8.08969 20.0402 7.31969ZM12.7502 18.4997C12.7502 18.9097 12.4102 19.2497 12.0002 19.2497C11.5902 19.2497 11.2502 18.9097 11.2502 18.4997V15.4997C11.2502 15.0897 11.5902 14.7497 12.0002 14.7497C12.4102 14.7497 12.7502 15.0897 12.7502 15.4997V18.4997Z" fill="#386BF6"/>
</svg>
