<svg width="30" height="30" viewBox="0 0 30 30" fill="none" xmlns="http://www.w3.org/2000/svg">
<path d="M2.5 16.2125V8.7375C2.5 5.2875 5.3 2.5 8.75 2.5H21.25C24.7 2.5 27.5 5.2875 27.5 8.7375V17.4625C27.5 20.9 24.7 23.6875 21.25 23.6875H19.375C18.9875 23.6875 18.6125 23.875 18.375 24.1875L16.5 26.675C15.675 27.775 14.325 27.775 13.5 26.675L11.625 24.1875C11.425 23.9125 10.975 23.6875 10.625 23.6875H8.75C5.3 23.6875 2.5 20.9 2.5 17.4625V16.2125Z" fill="#386BF6"/>
<path d="M15 15C14.3 15 13.75 14.4375 13.75 13.75C13.75 13.0625 14.3125 12.5 15 12.5C15.6875 12.5 16.25 13.0625 16.25 13.75C16.25 14.4375 15.7 15 15 15Z" fill="white"/>
<path d="M20 15C19.3 15 18.75 14.4375 18.75 13.75C18.75 13.0625 19.3125 12.5 20 12.5C20.6875 12.5 21.25 13.0625 21.25 13.75C21.25 14.4375 20.7 15 20 15Z" fill="white"/>
<path d="M10 15C9.3 15 8.75 14.4375 8.75 13.75C8.75 13.0625 9.3125 12.5 10 12.5C10.6875 12.5 11.25 13.0625 11.25 13.75C11.25 14.4375 10.7 15 10 15Z" fill="white"/>
</svg>
