<svg width="30" height="30" viewBox="0 0 30 30" fill="none" xmlns="http://www.w3.org/2000/svg">
<path d="M15.1992 14.525C15.1617 14.525 15.1367 14.525 15.0992 14.525C15.0367 14.5125 14.9492 14.5125 14.8742 14.525C11.2492 14.4125 8.51172 11.5625 8.51172 8.05C8.51172 4.475 11.4242 1.5625 14.9992 1.5625C18.5742 1.5625 21.4867 4.475 21.4867 8.05C21.4742 11.5625 18.7242 14.4125 15.2367 14.525C15.2242 14.525 15.2117 14.525 15.1992 14.525ZM14.9992 3.4375C12.4617 3.4375 10.3867 5.5125 10.3867 8.05C10.3867 10.55 12.3367 12.5625 14.8242 12.65C14.8867 12.6375 15.0617 12.6375 15.2242 12.65C17.6742 12.5375 19.5992 10.525 19.6117 8.05C19.6117 5.5125 17.5367 3.4375 14.9992 3.4375Z" fill="#9DB2CE"/>
<path d="M15.2125 28.1875C12.7625 28.1875 10.3 27.5625 8.4375 26.3125C6.7 25.1625 5.75 23.5875 5.75 21.875C5.75 20.1625 6.7 18.575 8.4375 17.4125C12.1875 14.925 18.2625 14.925 21.9875 17.4125C23.7125 18.5625 24.675 20.1375 24.675 21.85C24.675 23.5625 23.725 25.15 21.9875 26.3125C20.1125 27.5625 17.6625 28.1875 15.2125 28.1875ZM9.475 18.9875C8.275 19.7875 7.625 20.8125 7.625 21.8875C7.625 22.95 8.2875 23.975 9.475 24.7625C12.5875 26.85 17.8375 26.85 20.95 24.7625C22.15 23.9625 22.8 22.9375 22.8 21.8625C22.8 20.8 22.1375 19.775 20.95 18.9875C17.8375 16.9125 12.5875 16.9125 9.475 18.9875Z" fill="#9DB2CE"/>
</svg>
