<svg width="19" height="19" viewBox="0 0 19 19" fill="none" xmlns="http://www.w3.org/2000/svg">
<g clip-path="url(#clip0_446_117)">
<path d="M3.69238 5.37344L6.63145 8.3125L10.1939 11.875L13.6266 15.3076C12.465 16.1389 11.04 16.625 9.5 16.625C5.56641 16.625 2.375 13.4336 2.375 9.5C2.375 7.95996 2.86113 6.53496 3.69238 5.37344ZM12.3686 10.6875L11.1811 9.5H14.25V10.6875H12.3686ZM13.5561 11.875H14.8438C15.1703 11.875 15.4375 11.6078 15.4375 11.2812V8.90625C15.4375 8.57969 15.1703 8.3125 14.8438 8.3125H9.99355L5.37344 3.69238C6.53496 2.86113 7.95996 2.375 9.5 2.375C13.4336 2.375 16.625 5.56641 16.625 9.5C16.625 11.04 16.1389 12.465 15.3076 13.6266L13.5561 11.875ZM9.5 19C14.7473 19 19 14.7473 19 9.5C19 4.25273 14.7473 0 9.5 0C4.25273 0 0 4.25273 0 9.5C0 14.7473 4.25273 19 9.5 19ZM10.0938 3.5625C9.76719 3.5625 9.5 3.82969 9.5 4.15625C9.5 5.13965 10.2979 5.9375 11.2812 5.9375H12.4688C12.7953 5.9375 13.0625 6.20469 13.0625 6.53125C13.0625 6.85781 13.3297 7.125 13.6562 7.125C13.9828 7.125 14.25 6.85781 14.25 6.53125C14.25 5.54785 13.4521 4.75 12.4688 4.75H11.2812C10.9547 4.75 10.6875 4.48281 10.6875 4.15625C10.6875 3.82969 10.4203 3.5625 10.0938 3.5625ZM8.5166 11.875L4.9541 8.3125H4.15625C3.82969 8.3125 3.5625 8.57969 3.5625 8.90625V11.2812C3.5625 11.6078 3.82969 11.875 4.15625 11.875H8.5166Z" fill="black"/>
</g>
<defs>
<clipPath id="clip0_446_117">
<rect width="19" height="19" fill="white"/>
</clipPath>
</defs>
</svg>
