<svg width="19" height="18" viewBox="0 0 19 18" fill="none" xmlns="http://www.w3.org/2000/svg">
<path d="M17.1 6.21095V0H15.2V1.89474H3.8V0H1.9V6.21189C0.7695 6.86842 0 8.07726 0 9.47368V13.2632C0 13.5144 0.100089 13.7554 0.278249 13.933C0.456408 14.1107 0.698044 14.2105 0.95 14.2105H1.9V18H3.8V14.2105H15.2V18H17.1V14.2105H18.05C18.302 14.2105 18.5436 14.1107 18.7218 13.933C18.8999 13.7554 19 13.5144 19 13.2632V9.47368C19 8.07726 18.2295 6.86842 17.1 6.21095ZM8.55 5.68421H3.8V3.78947H8.55V5.68421ZM15.2 5.68421H10.45V3.78947H15.2V5.68421Z" fill="black"/>
</svg>
