<svg width="18" height="14" viewBox="0 0 18 14" fill="none" xmlns="http://www.w3.org/2000/svg">
<path d="M6.58886 2.72531C6.63011 2.74031 6.65136 2.78531 6.63636 2.82594C6.61739 2.87856 6.58819 2.92691 6.55043 2.9682C6.51268 3.00948 6.46713 3.04288 6.41641 3.06647C6.36568 3.09006 6.31079 3.10338 6.25489 3.10564C6.19899 3.10791 6.1432 3.09909 6.09073 3.07969C6.07117 3.07223 6.05538 3.0573 6.04682 3.0382C6.03826 3.01909 6.03765 2.99737 6.04511 2.97781C6.05257 2.95825 6.06749 2.94245 6.0866 2.9339C6.1057 2.92534 6.12742 2.92473 6.14698 2.93219C6.2133 2.95618 6.28641 2.95295 6.35036 2.92321C6.4143 2.89346 6.46387 2.83962 6.48823 2.77343C6.49167 2.76366 6.497 2.75466 6.50391 2.74694C6.51083 2.73923 6.51921 2.73296 6.52856 2.72849C6.5379 2.72402 6.54804 2.72143 6.55839 2.72089C6.56874 2.72034 6.57909 2.72185 6.58886 2.72531ZM5.11886 2.56843C5.28136 2.66218 5.48761 2.62469 5.60636 2.48094C5.72511 2.34969 5.73136 2.14968 5.62511 1.99968C5.60636 1.97468 5.56886 1.96844 5.53761 1.98719C5.51261 2.00594 5.50636 2.04969 5.52511 2.08094C5.59386 2.17469 5.58761 2.30594 5.50636 2.39969C5.42511 2.49344 5.28761 2.51844 5.18136 2.45594C5.15011 2.43719 5.11261 2.44969 5.09386 2.48094C5.07511 2.51219 5.08761 2.54968 5.11886 2.56843ZM5.15948 1.72781C5.16731 1.73559 5.17351 1.74484 5.17775 1.75503C5.18199 1.76522 5.18417 1.77615 5.18417 1.78718C5.18417 1.79822 5.18199 1.80915 5.17775 1.81934C5.17351 1.82953 5.16731 1.83878 5.15948 1.84656C5.04972 1.95641 4.98128 2.1008 4.96573 2.25531C4.96323 2.30281 4.93261 2.34593 4.88136 2.34593C4.85915 2.34593 4.83784 2.33711 4.82214 2.32141C4.80643 2.3057 4.79761 2.2844 4.79761 2.26218C4.79761 2.21218 4.80386 2.16219 4.82823 2.08281C4.86851 1.94867 4.94153 1.82667 5.04073 1.72781C5.04851 1.71999 5.05777 1.71378 5.06796 1.70954C5.07815 1.70531 5.08907 1.70313 5.10011 1.70312C5.11114 1.70313 5.12207 1.70531 5.13226 1.70954C5.14245 1.71378 5.1517 1.71999 5.15948 1.72781Z" fill="black"/>
<path d="M4.32812 0.734981C4.45187 0.708731 4.57812 0.695606 4.705 0.696231L4.70312 0.701231C5.10151 0.699106 5.489 0.831206 5.80313 1.07623L6.04875 1.26373C6.11625 1.27248 6.18438 1.27686 6.2525 1.27873C6.4625 1.27186 6.66875 1.33811 6.83562 1.46623C6.93768 1.54938 7.01992 1.65423 7.07636 1.77315C7.13279 1.89208 7.16201 2.02209 7.16187 2.15373C7.47245 2.39038 7.6785 2.73881 7.73625 3.12498H15.875C16.3723 3.12498 16.8492 3.32252 17.2008 3.67416C17.5525 4.02579 17.75 4.5027 17.75 4.99998V8.74998H5.875V6.25311H1.55C1.53332 6.25312 1.51664 6.25249 1.5 6.25123V8.12498H5.25V9.37498H17.75V11.875H16.5125V13.75H14.625V11.875H3.375V13.75H1.49375V11.875H0.25V2.49998C0.25 2.33422 0.315848 2.17525 0.433058 2.05804C0.550268 1.94083 0.70924 1.87498 0.875 1.87498C1.04076 1.87498 1.19973 1.94083 1.31694 2.05804C1.43415 2.17525 1.5 2.33422 1.5 2.49998V3.22186C1.70104 3.08477 1.93387 3.00149 2.17625 2.97998C2.25375 2.62436 2.49375 2.29311 2.77 2.04873C2.78437 2.02873 2.79875 2.00936 2.81375 1.99061L3.2825 1.39123C3.31938 1.34373 3.35875 1.29748 3.4 1.25436C3.445 1.16686 3.50812 1.06436 3.60625 0.937481C3.72563 0.785606 4 0.581856 4.32812 0.734981ZM4.425 2.14998C3.8125 2.93748 4.29375 3.30623 4.29375 3.30623C4.29375 3.30623 4.27125 3.32373 4.25563 3.36248C4.21567 3.43271 4.19419 3.51194 4.1932 3.59273C4.19221 3.67353 4.21174 3.75325 4.24996 3.82444C4.28818 3.89564 4.34383 3.95597 4.41172 3.99978C4.47961 4.0436 4.55751 4.06947 4.63812 4.07498C4.7175 4.14998 4.8125 4.23123 4.925 4.31873C5.10875 4.46123 5.17 4.59061 5.1675 4.70623L5.16875 4.70686C5.26562 4.73561 5.36625 4.75061 5.4675 4.74998C5.72829 4.72726 5.98196 4.6529 6.21375 4.53123C6.46288 4.39063 6.68303 4.20399 6.8625 3.98123C7.12437 3.64373 7.17875 3.37061 7.1 3.12498H7.10375C7.01875 2.85748 6.77563 2.62311 6.47125 2.37561C6.52057 2.31589 6.54596 2.23999 6.5425 2.16262C6.53903 2.08525 6.50696 2.01192 6.4525 1.95686C6.38973 1.91232 6.31272 1.89251 6.23625 1.90123C6.09278 1.89806 5.94981 1.88322 5.80875 1.85686H5.8L5.425 1.57061C5.24249 1.42676 5.02113 1.34079 4.78937 1.32373C4.8025 1.53811 4.69563 1.80123 4.425 2.14998ZM4.34563 5.03373L4.1375 4.94436L3.66375 4.75748C3.64447 4.75027 3.6253 4.74276 3.60625 4.73498L3.28125 4.60686L3.1975 4.57373L3.12625 4.51811C3.06554 4.4708 3.00792 4.41965 2.95375 4.36498C2.86108 4.29999 2.77021 4.23247 2.68125 4.16248C2.45187 3.98498 2.30625 3.79561 2.2275 3.60311C2.02829 3.62166 1.84322 3.71402 1.70862 3.86203C1.57401 4.01005 1.49961 4.20304 1.5 4.40311V5.57811C1.5 5.59748 1.51562 5.61748 1.53437 5.62498H5.875V5.31561C5.74035 5.34632 5.60345 5.36617 5.46563 5.37498C5.30313 5.37498 5.1425 5.35186 4.98688 5.30561L4.9525 5.29498L4.92 5.28123L4.81812 5.23748C4.64875 5.35748 4.39 5.23748 4.34563 5.03373Z" fill="black"/>
</svg>
