<svg width="24" height="15" viewBox="0 0 24 15" fill="none" xmlns="http://www.w3.org/2000/svg">
<path d="M12.5 2.5V6.25H11.25V4.64063L8.76562 7.10938C8.96354 7.40104 9.11458 7.71083 9.21875 8.03875C9.32292 8.36708 9.375 8.70833 9.375 9.0625C9.375 10.0208 9.04167 10.8333 8.375 11.5C7.70833 12.1667 6.89583 12.5 5.9375 12.5C4.97917 12.5 4.16667 12.1667 3.5 11.5C2.83333 10.8333 2.5 10.0208 2.5 9.0625C2.5 8.10417 2.83333 7.29167 3.5 6.625C4.16667 5.95833 4.97917 5.625 5.9375 5.625C6.28125 5.625 6.61979 5.67458 6.95312 5.77375C7.28646 5.8725 7.59375 6.02604 7.875 6.23438L10.3594 3.75H8.75V2.5H12.5ZM5.9375 6.875C5.33333 6.875 4.81771 7.08854 4.39063 7.51562C3.96354 7.94271 3.75 8.45833 3.75 9.0625C3.75 9.66667 3.96354 10.1823 4.39063 10.6094C4.81771 11.0365 5.33333 11.25 5.9375 11.25C6.54167 11.25 7.05729 11.0365 7.48438 10.6094C7.91146 10.1823 8.125 9.66667 8.125 9.0625C8.125 8.45833 7.91146 7.94271 7.48438 7.51562C7.05729 7.08854 6.54167 6.875 5.9375 6.875Z" fill="#8E8E8E"/>
<path fill-rule="evenodd" clip-rule="evenodd" d="M14.792 6.14403C14.7921 5.2272 15.1024 4.33737 15.6723 3.6192C16.2422 2.90104 17.0383 2.39677 17.9311 2.18837C18.8239 1.97998 19.761 2.07972 20.59 2.47137C21.4189 2.86303 22.091 3.52357 22.497 4.34561C22.903 5.16764 23.019 6.10284 22.8261 6.99915C22.6332 7.89546 22.1429 8.70017 21.4347 9.28247C20.7265 9.86476 19.8422 10.1904 18.9255 10.2064C18.0089 10.2224 17.1137 9.92792 16.3856 9.37073L15.4171 10.3387L16.1895 11.1111C16.2413 11.1611 16.2825 11.2208 16.3109 11.2869C16.3393 11.353 16.3542 11.4241 16.3549 11.496C16.3555 11.5679 16.3418 11.6393 16.3146 11.7058C16.2873 11.7724 16.2471 11.8329 16.1962 11.8837C16.1454 11.9346 16.0849 11.9748 16.0183 12.0021C15.9518 12.0293 15.8804 12.043 15.8085 12.0424C15.7366 12.0417 15.6655 12.0268 15.5994 11.9984C15.5333 11.97 15.4736 11.9288 15.4236 11.877L14.6512 11.1052L13.5029 12.2535C13.4012 12.3551 13.2634 12.4121 13.1197 12.412C12.976 12.412 12.8382 12.3549 12.7367 12.2532C12.6351 12.1516 12.5781 12.0138 12.5781 11.8701C12.5782 11.7264 12.6353 11.5886 12.7369 11.487L13.8853 10.3387L13.1253 9.57873C13.0736 9.52877 13.0323 9.469 13.0039 9.40291C12.9755 9.33683 12.9606 9.26575 12.96 9.19383C12.9593 9.1219 12.9731 9.05058 13.0003 8.98401C13.0275 8.91744 13.0677 8.85696 13.1186 8.8061C13.1695 8.75524 13.2299 8.71502 13.2965 8.68779C13.3631 8.66055 13.4344 8.64685 13.5063 8.64747C13.5782 8.6481 13.6493 8.66304 13.7154 8.69143C13.7815 8.71982 13.8413 8.76108 13.8912 8.81282L14.6512 9.57278L15.6208 8.60319C15.0819 7.89675 14.7907 7.03252 14.792 6.14403ZM18.8545 3.16486C18.0644 3.16486 17.3066 3.47873 16.7479 4.03744C16.1892 4.59614 15.8754 5.3539 15.8754 6.14403C15.8754 6.93415 16.1892 7.69191 16.7479 8.25061C17.3066 8.80932 18.0644 9.12319 18.8545 9.12319C19.6447 9.12319 20.4024 8.80932 20.9611 8.25061C21.5198 7.69191 21.8337 6.93415 21.8337 6.14403C21.8337 5.3539 21.5198 4.59614 20.9611 4.03744C20.4024 3.47873 19.6447 3.16486 18.8545 3.16486Z" fill="#8E8E8E"/>
</svg>
