<svg width="23" height="15" viewBox="0 0 23 15" fill="none" xmlns="http://www.w3.org/2000/svg">
<g clip-path="url(#clip0_2057_2306)">
<path fill-rule="evenodd" clip-rule="evenodd" d="M13.792 6.14598C13.7921 5.22915 14.1024 4.33932 14.6723 3.62116C15.2422 2.90299 16.0383 2.39872 16.9311 2.19032C17.8239 1.98193 18.761 2.08167 19.59 2.47332C20.4189 2.86498 21.091 3.52552 21.497 4.34756C21.903 5.1696 22.019 6.10479 21.8261 7.0011C21.6332 7.89741 21.1429 8.70213 20.4347 9.28442C19.7265 9.86671 18.8422 10.1923 17.9255 10.2084C17.0089 10.2244 16.1137 9.92987 15.3856 9.37269L14.4171 10.3406L15.1895 11.1131C15.2413 11.163 15.2825 11.2228 15.3109 11.2889C15.3393 11.355 15.3542 11.426 15.3549 11.498C15.3555 11.5699 15.3418 11.6412 15.3146 11.7078C15.2873 11.7744 15.2471 11.8348 15.1962 11.8857C15.1454 11.9366 15.0849 11.9768 15.0183 12.004C14.9518 12.0312 14.8804 12.0449 14.8085 12.0443C14.7366 12.0437 14.6655 12.0288 14.5994 12.0004C14.5333 11.972 14.4736 11.9307 14.4236 11.879L13.6512 11.1071L12.5029 12.2554C12.4012 12.357 12.2634 12.414 12.1197 12.414C11.976 12.4139 11.8382 12.3568 11.7367 12.2552C11.6351 12.1535 11.5781 12.0157 11.5781 11.872C11.5782 11.7283 11.6353 11.5905 11.7369 11.489L12.8853 10.3406L12.1253 9.58069C12.0736 9.53072 12.0323 9.47095 12.0039 9.40486C11.9755 9.33878 11.9606 9.2677 11.96 9.19578C11.9593 9.12386 11.9731 9.05253 12.0003 8.98596C12.0275 8.91939 12.0677 8.85891 12.1186 8.80806C12.1695 8.7572 12.2299 8.71698 12.2965 8.68974C12.3631 8.66251 12.4344 8.6488 12.5063 8.64943C12.5782 8.65005 12.6493 8.66499 12.7154 8.69338C12.7815 8.72177 12.8413 8.76304 12.8912 8.81477L13.6512 9.57473L14.6208 8.60515C14.0819 7.8987 13.7907 7.03448 13.792 6.14598ZM17.8545 3.16681C17.0644 3.16681 16.3066 3.48069 15.7479 4.03939C15.1892 4.59809 14.8754 5.35585 14.8754 6.14598C14.8754 6.9361 15.1892 7.69387 15.7479 8.25257C16.3066 8.81127 17.0644 9.12515 17.8545 9.12515C18.6447 9.12515 19.4024 8.81127 19.9611 8.25257C20.5198 7.69387 20.8337 6.9361 20.8337 6.14598C20.8337 5.35585 20.5198 4.59809 19.9611 4.03939C19.4024 3.48069 18.6447 3.16681 17.8545 3.16681Z" fill="white"/>
</g>
<path d="M12.5 2.5V6.25H11.25V4.64063L8.76562 7.10938C8.96354 7.40104 9.11458 7.71083 9.21875 8.03875C9.32292 8.36708 9.375 8.70833 9.375 9.0625C9.375 10.0208 9.04167 10.8333 8.375 11.5C7.70833 12.1667 6.89583 12.5 5.9375 12.5C4.97917 12.5 4.16667 12.1667 3.5 11.5C2.83333 10.8333 2.5 10.0208 2.5 9.0625C2.5 8.10417 2.83333 7.29167 3.5 6.625C4.16667 5.95833 4.97917 5.625 5.9375 5.625C6.28125 5.625 6.61979 5.67458 6.95312 5.77375C7.28646 5.8725 7.59375 6.02604 7.875 6.23438L10.3594 3.75H8.75V2.5H12.5ZM5.9375 6.875C5.33333 6.875 4.81771 7.08854 4.39063 7.51562C3.96354 7.94271 3.75 8.45833 3.75 9.0625C3.75 9.66667 3.96354 10.1823 4.39063 10.6094C4.81771 11.0365 5.33333 11.25 5.9375 11.25C6.54167 11.25 7.05729 11.0365 7.48438 10.6094C7.91146 10.1823 8.125 9.66667 8.125 9.0625C8.125 8.45833 7.91146 7.94271 7.48438 7.51562C7.05729 7.08854 6.54167 6.875 5.9375 6.875Z" fill="white"/>
<defs>
<clipPath id="clip0_2057_2306">
<rect width="13" height="13" fill="white" transform="translate(10 1)"/>
</clipPath>
</defs>
</svg>
