<svg width="24" height="24" viewBox="0 0 24 24" fill="none" xmlns="http://www.w3.org/2000/svg">
<g clip-path="url(#clip0_2028_1822)">
<path fill-rule="evenodd" clip-rule="evenodd" d="M7.00029 9.49907C7.0005 7.80647 7.57324 6.1637 8.6254 4.83786C9.67755 3.51201 11.1472 2.58105 12.7955 2.19632C14.4438 1.81159 16.1738 1.99573 17.7042 2.71878C19.2346 3.44184 20.4754 4.6613 21.2249 6.17891C21.9744 7.69652 22.1885 9.42303 21.8325 11.0778C21.4764 12.7325 20.5711 14.2181 19.2637 15.2931C17.9563 16.3681 16.3237 16.9693 14.6314 16.9989C12.939 17.0284 11.2865 16.4847 9.94229 15.4561L8.15429 17.2431L9.58029 18.6691C9.6758 18.7613 9.75198 18.8717 9.80439 18.9937C9.8568 19.1157 9.88438 19.2469 9.88554 19.3797C9.88669 19.5124 9.86139 19.6441 9.81111 19.767C9.76083 19.8899 9.68658 20.0016 9.59268 20.0955C9.49879 20.1894 9.38714 20.2636 9.26424 20.3139C9.14135 20.3642 9.00967 20.3895 8.87689 20.3883C8.74411 20.3872 8.61289 20.3596 8.49088 20.3072C8.36888 20.2548 8.25854 20.1786 8.16629 20.0831L6.74029 18.6581L4.62029 20.7781C4.43265 20.9656 4.17821 21.0709 3.91294 21.0708C3.64766 21.0707 3.3933 20.9652 3.20579 20.7776C3.01828 20.5899 2.91299 20.3355 2.91309 20.0702C2.91318 19.8049 3.01865 19.5506 3.20629 19.3631L5.32629 17.2431L3.92329 15.8401C3.82778 15.7478 3.7516 15.6375 3.69919 15.5155C3.64678 15.3935 3.61919 15.2622 3.61804 15.1295C3.61688 14.9967 3.64219 14.865 3.69247 14.7421C3.74275 14.6192 3.817 14.5076 3.91089 14.4137C4.00479 14.3198 4.11644 14.2455 4.23933 14.1952C4.36223 14.145 4.49391 14.1197 4.62669 14.1208C4.75947 14.122 4.89069 14.1496 5.01269 14.202C5.1347 14.2544 5.24504 14.3306 5.33729 14.4261L6.74029 15.8291L8.53029 14.0391C7.53547 12.7349 6.99778 11.1394 7.00029 9.49907ZM14.5003 3.99907C13.0416 3.99907 11.6427 4.57853 10.6112 5.60998C9.57975 6.64143 9.00029 8.04038 9.00029 9.49907C9.00029 10.9578 9.57975 12.3567 10.6112 13.3882C11.6427 14.4196 13.0416 14.9991 14.5003 14.9991C15.959 14.9991 17.3579 14.4196 18.3894 13.3882C19.4208 12.3567 20.0003 10.9578 20.0003 9.49907C20.0003 8.04038 19.4208 6.64143 18.3894 5.60998C17.3579 4.57853 15.959 3.99907 14.5003 3.99907Z" fill="#8E8E8E"/>
</g>
<defs>
<clipPath id="clip0_2028_1822">
<rect width="24" height="24" fill="white"/>
</clipPath>
</defs>
</svg>
