<svg width="13" height="13" viewBox="0 0 13 13" fill="none" xmlns="http://www.w3.org/2000/svg">
<path fill-rule="evenodd" clip-rule="evenodd" d="M3.79203 5.14598C3.79214 4.22915 4.10238 3.33932 4.67229 2.62116C5.24221 1.90299 6.03829 1.39872 6.93112 1.19032C7.82395 0.981931 8.76101 1.08167 9.58997 1.47332C10.4189 1.86498 11.091 2.52552 11.497 3.34756C11.903 4.1696 12.019 5.10479 11.8261 6.0011C11.6332 6.89741 11.1429 7.70213 10.4347 8.28442C9.72653 8.86671 8.84222 9.19234 7.92554 9.20837C7.00885 9.22439 6.1137 8.92987 5.38561 8.37269L4.41711 9.34064L5.18953 10.1131C5.24126 10.163 5.28253 10.2228 5.31091 10.2889C5.3393 10.355 5.35425 10.426 5.35487 10.498C5.3555 10.5699 5.34179 10.6412 5.31455 10.7078C5.28732 10.7744 5.2471 10.8348 5.19624 10.8857C5.14538 10.9366 5.0849 10.9768 5.01834 11.004C4.95177 11.0312 4.88044 11.0449 4.80852 11.0443C4.7366 11.0437 4.66552 11.0288 4.59943 11.0004C4.53335 10.972 4.47358 10.9307 4.42361 10.879L3.65119 10.1071L2.50286 11.2554C2.40122 11.357 2.2634 11.414 2.11971 11.414C1.97602 11.4139 1.83824 11.3568 1.73667 11.2552C1.63511 11.1535 1.57807 11.0157 1.57813 10.872C1.57818 10.7283 1.6353 10.5905 1.73694 10.489L2.88528 9.34064L2.12532 8.58069C2.07358 8.53072 2.03232 8.47095 2.00393 8.40486C1.97554 8.33878 1.9606 8.2677 1.95997 8.19578C1.95935 8.12386 1.97305 8.05253 2.00029 7.98596C2.02753 7.91939 2.06775 7.85891 2.1186 7.80806C2.16946 7.7572 2.22994 7.71698 2.29651 7.68974C2.36308 7.66251 2.43441 7.6488 2.50633 7.64943C2.57825 7.65005 2.64933 7.66499 2.71541 7.69338C2.7815 7.72177 2.84127 7.76304 2.89123 7.81477L3.65119 8.57473L4.62078 7.60515C4.08192 6.8987 3.79067 6.03448 3.79203 5.14598ZM7.85453 2.16681C7.0644 2.16681 6.30664 2.48069 5.74794 3.03939C5.18924 3.59809 4.87536 4.35585 4.87536 5.14598C4.87536 5.9361 5.18924 6.69387 5.74794 7.25257C6.30664 7.81127 7.0644 8.12515 7.85453 8.12515C8.64465 8.12515 9.40241 7.81127 9.96112 7.25257C10.5198 6.69387 10.8337 5.9361 10.8337 5.14598C10.8337 4.35585 10.5198 3.59809 9.96112 3.03939C9.40241 2.48069 8.64465 2.16681 7.85453 2.16681Z" fill="white"/>
</svg>
