<svg width="16" height="18" viewBox="0 0 16 18" fill="none" xmlns="http://www.w3.org/2000/svg">
<path d="M8.85745 1.6875V9H10.5717V2.06367C11.4253 2.54883 12.0003 3.45937 12.0003 4.5V9H13.7146V4.5C13.7146 2.01445 11.6682 0 9.14316 0H6.85745C4.33245 0 2.28602 2.01445 2.28602 4.5V9H4.00031V4.5C4.00031 3.45937 4.57531 2.54883 5.42888 2.06367V9H7.14316V1.6875H8.85745ZM1.71459 10.125C1.28245 10.125 0.886022 10.3641 0.693165 10.7473L0.121736 11.8723C-0.0568354 12.2203 -0.0354068 12.6352 0.171736 12.9656C0.378879 13.2961 0.746736 13.5 1.14316 13.5V16.875C1.14316 17.4973 1.65388 18 2.28602 18C2.91816 18 3.42888 17.4973 3.42888 16.875V13.5H12.5717V16.875C12.5717 17.4973 13.0825 18 13.7146 18C14.3467 18 14.8575 17.4973 14.8575 16.875V13.5C15.2539 13.5 15.6217 13.2996 15.8289 12.9656C16.036 12.6316 16.0575 12.2203 15.8789 11.8723L15.3075 10.7473C15.1146 10.3641 14.7182 10.125 14.286 10.125H1.71459Z" fill="black"/>
</svg>
