<svg width="20" height="20" viewBox="0 0 20 20" fill="none" xmlns="http://www.w3.org/2000/svg">
<path d="M16.6168 7.81406C16.1551 6.72984 15.4344 5.77551 14.5178 5.03487C13.6012 4.29422 12.5168 3.7899 11.3598 3.56617L12.405 1.89395L11.345 1.23145L9.9659 3.43801C8.56113 3.44453 7.18904 3.86246 6.01917 4.64017C4.84929 5.41788 3.9329 6.52129 3.38321 7.81406C2.6469 7.82806 1.94548 8.13038 1.42971 8.65605C0.913938 9.18171 0.625 9.88876 0.625 10.6252C0.625 11.3616 0.913938 12.0687 1.42971 12.5943C1.94548 13.12 2.6469 13.4223 3.38321 13.4363C3.93524 14.7344 4.8569 15.8415 6.03343 16.6196C7.20997 17.3978 8.58941 17.8127 10 17.8127C11.4106 17.8127 12.79 17.3978 13.9666 16.6196C15.1431 15.8415 16.0648 14.7344 16.6168 13.4363C17.3531 13.4223 18.0545 13.12 18.5703 12.5943C19.0861 12.0687 19.375 11.3616 19.375 10.6252C19.375 9.88876 19.0861 9.18171 18.5703 8.65605C18.0545 8.13038 17.3531 7.82806 16.6168 7.81406ZM17.6774 11.7193C17.3915 12.0117 17.0019 12.1796 16.5931 12.1866L15.7835 12.202L15.4666 12.947C15.0106 14.0196 14.2492 14.9342 13.2772 15.5772C12.3051 16.2202 11.1655 16.563 10 16.563C8.83459 16.563 7.69491 16.2202 6.72289 15.5772C5.75087 14.9342 4.98946 14.0196 4.53348 12.947L4.21653 12.202L3.40696 12.1866C2.99792 12.1789 2.60821 12.011 2.32165 11.7191C2.03508 11.4271 1.87454 11.0343 1.87454 10.6252C1.87454 10.2161 2.03508 9.82331 2.32165 9.53133C2.60821 9.23935 2.99792 9.07148 3.40696 9.06383L4.21653 9.04844L4.53348 8.30336C4.98948 7.23085 5.75089 6.31617 6.72291 5.67322C7.69492 5.03026 8.8346 4.68744 10 4.68744C11.1654 4.68744 12.3051 5.03026 13.2771 5.67322C14.2492 6.31617 15.0106 7.23085 15.4666 8.30336L15.7835 9.04844L16.5931 9.06383C16.8981 9.06959 17.1948 9.16462 17.4465 9.33717C17.6982 9.50972 17.8938 9.75223 18.0091 10.0347C18.1245 10.3172 18.1546 10.6273 18.0956 10.9267C18.0367 11.2261 17.8913 11.5017 17.6774 11.7193Z" fill="black"/>
<path d="M6.5625 9.0625H8.125V10.625H6.5625V9.0625ZM11.875 9.0625H13.4375V10.625H11.875V9.0625ZM10 15C10.4104 15 10.8167 14.9192 11.1959 14.7621C11.575 14.6051 11.9195 14.3749 12.2097 14.0847C12.4999 13.7945 12.7301 13.45 12.8871 13.0709C13.0442 12.6917 13.125 12.2854 13.125 11.875H6.875C6.875 12.2854 6.95583 12.6917 7.11288 13.0709C7.26992 13.45 7.50011 13.7945 7.79029 14.0847C8.37634 14.6708 9.1712 15 10 15Z" fill="black"/>
</svg>
