<svg width="19" height="19" viewBox="0 0 19 19" fill="none" xmlns="http://www.w3.org/2000/svg">
<g clip-path="url(#clip0_446_85)">
<path d="M3.59497 12.6348C3.96388 12.6348 4.26294 12.3357 4.26294 11.9668C4.26294 11.5979 3.96388 11.2988 3.59497 11.2988C3.22606 11.2988 2.927 11.5979 2.927 11.9668C2.927 12.3357 3.22606 12.6348 3.59497 12.6348Z" fill="black"/>
<path d="M6.78052 12.6348C7.14943 12.6348 7.44849 12.3357 7.44849 11.9668C7.44849 11.5979 7.14943 11.2988 6.78052 11.2988C6.41161 11.2988 6.11255 11.5979 6.11255 11.9668C6.11255 12.3357 6.41161 12.6348 6.78052 12.6348Z" fill="black"/>
<path d="M4.02096 14.1479C4.22907 14.5294 4.64974 14.8699 5.18827 14.8699C5.7268 14.8699 6.14718 14.5297 6.35528 14.1479C6.41139 14.0452 6.33717 13.9345 6.25435 13.9983C5.56767 14.533 4.8053 14.5294 4.1213 13.9983C4.03877 13.9348 3.96455 14.0455 4.02096 14.1479Z" fill="black"/>
<path d="M16.1251 15.1255C16.8197 14.5997 17.4022 13.8834 17.5498 13.045C17.9645 12.9809 18.4062 12.716 18.4062 11.8803C18.4062 11.1444 18.1349 10.9241 17.9054 10.8695C17.8814 7.85056 17.1445 6.56331 13.8397 6.53214C10.5076 6.50038 9.62973 7.84314 9.59797 10.9072C9.56303 10.9249 9.53017 10.9464 9.5 10.9713V10.8864C9.5 7.20634 7.08878 7.27522 7.08878 7.27522C7.08878 7.27522 6.90739 6.53125 5.04717 6.53125C2.16659 6.53125 0.59375 8.41047 0.59375 10.8864V18.4062H18.4062V16.2613C18.4062 15.6955 17.4301 15.3173 16.1251 15.1255ZM1.74948 10.8986C3.53667 10.8986 6.44842 8.57405 6.44842 8.57405C6.44842 8.57405 7.54894 10.626 8.61116 10.8986C8.61116 10.8986 9.12623 10.993 9.12623 11.8079C9.12623 12.7873 8.43956 12.9565 8.43956 12.9565C8.43095 14.4347 6.41309 15.9205 5.18878 15.9205C3.96298 15.9205 1.91158 14.4344 1.91158 12.9565C1.91158 12.9565 1.24984 12.7873 1.24984 11.8079C1.24984 11.0319 1.74948 10.8986 1.74948 10.8986ZM9.35156 18.1156L0.890328 18.1094V16.2613C0.890328 15.9603 1.65894 15.5764 3.12016 15.3891C3.7997 15.8947 4.58345 16.2171 5.18878 16.2171C5.77422 16.2171 6.53066 15.9077 7.19536 15.4197C8.512 15.6162 9.35186 16.1916 9.35186 16.4766V18.1156H9.35156ZM9.49109 11.8803C9.49109 11.3958 9.60895 11.15 9.8423 11.15C9.85773 11.15 9.87317 11.1509 9.88891 11.1527C9.91978 11.3302 9.956 11.4582 9.99905 11.5428C10.1053 11.7497 10.3075 11.8628 10.3304 11.875L10.5791 12.0089L10.5394 11.7224C10.5082 11.453 10.498 11.1815 10.5088 10.9105C10.6073 9.41836 10.702 9.21945 11.0262 9.21945C11.1735 9.21945 11.3757 9.26072 11.6319 9.31238C12.1309 9.41361 12.814 9.55225 13.8041 9.55225C14.7942 9.55225 15.4776 9.41361 15.9763 9.31238C16.2325 9.26042 16.4347 9.21945 16.5822 9.21945C16.9067 9.21945 17.0014 9.41895 17.0988 10.9102C17.116 11.3783 17.0694 11.7191 17.0688 11.7224L17.0287 12.0095L17.2784 11.875C17.3013 11.8628 17.5029 11.7497 17.6094 11.5428C17.6531 11.4576 17.689 11.3323 17.7205 11.1527C17.9814 11.1242 18.1183 11.3644 18.1183 11.8803C18.1183 12.4462 17.8944 12.7264 17.4141 12.7624L17.2965 12.771L17.2814 12.8909C17.059 14.654 14.7286 15.7721 13.8041 15.7721C12.8796 15.7721 10.5492 14.654 10.3274 12.8909L10.3123 12.771L10.1947 12.7624C9.71494 12.7261 9.49109 12.4462 9.49109 11.8803ZM9.5 12.7733C9.65913 12.9354 9.86189 13.0144 10.0596 13.045C10.2107 13.9047 10.8187 14.6362 11.5366 15.1656C10.3571 15.3674 9.5 15.7314 9.5 16.2613V12.7733ZM18.1091 18.1094L9.64844 18.1097V16.4769C9.64844 15.9665 10.5907 15.5919 11.8928 15.409C12.5715 15.8291 13.2958 16.069 13.8044 16.069C14.3254 16.069 15.0723 15.816 15.765 15.3769C17.2149 15.5488 18.1091 15.9137 18.1091 16.2613V18.1094Z" fill="black"/>
<path d="M12.1746 12.6348C12.5435 12.6348 12.8425 12.3357 12.8425 11.9668C12.8425 11.5979 12.5435 11.2988 12.1746 11.2988C11.8057 11.2988 11.5066 11.5979 11.5066 11.9668C11.5066 12.3357 11.8057 12.6348 12.1746 12.6348Z" fill="black"/>
<path d="M15.4397 12.6348C15.8086 12.6348 16.1077 12.3357 16.1077 11.9668C16.1077 11.5979 15.8086 11.2988 15.4397 11.2988C15.0708 11.2988 14.7717 11.5979 14.7717 11.9668C14.7717 12.3357 15.0708 12.6348 15.4397 12.6348Z" fill="black"/>
<path d="M12.6389 14.1477C12.847 14.5292 13.268 14.8697 13.8068 14.8697C14.3456 14.8697 14.7663 14.5295 14.9747 14.1477C15.0308 14.045 14.956 13.9342 14.8738 13.9981C14.1868 14.5327 13.4235 14.5292 12.7395 13.9981C12.657 13.9345 12.5828 14.0453 12.6389 14.1477ZM9.49913 7.71856C9.85567 7.39734 14.836 4.80384 13.8154 2.10169C12.8669 -0.40958 9.78442 0.71706 9.49913 1.97136C9.10725 0.634826 6.10199 -0.361783 5.18464 2.10287C4.16339 4.84956 9.14317 7.31511 9.49913 7.71856Z" fill="black"/>
</g>
<defs>
<clipPath id="clip0_446_85">
<rect width="19" height="19" fill="white"/>
</clipPath>
</defs>
</svg>
