<svg width="15" height="15" viewBox="0 0 15 15" fill="none" xmlns="http://www.w3.org/2000/svg">
<path d="M12.5 2.5V6.25H11.25V4.64063L8.76562 7.10938C8.96354 7.40104 9.11458 7.71083 9.21875 8.03875C9.32292 8.36708 9.375 8.70833 9.375 9.0625C9.375 10.0208 9.04167 10.8333 8.375 11.5C7.70833 12.1667 6.89583 12.5 5.9375 12.5C4.97917 12.5 4.16667 12.1667 3.5 11.5C2.83333 10.8333 2.5 10.0208 2.5 9.0625C2.5 8.10417 2.83333 7.29167 3.5 6.625C4.16667 5.95833 4.97917 5.625 5.9375 5.625C6.28125 5.625 6.61979 5.67458 6.95312 5.77375C7.28646 5.8725 7.59375 6.02604 7.875 6.23438L10.3594 3.75H8.75V2.5H12.5ZM5.9375 6.875C5.33333 6.875 4.81771 7.08854 4.39063 7.51562C3.96354 7.94271 3.75 8.45833 3.75 9.0625C3.75 9.66667 3.96354 10.1823 4.39063 10.6094C4.81771 11.0365 5.33333 11.25 5.9375 11.25C6.54167 11.25 7.05729 11.0365 7.48438 10.6094C7.91146 10.1823 8.125 9.66667 8.125 9.0625C8.125 8.45833 7.91146 7.94271 7.48438 7.51562C7.05729 7.08854 6.54167 6.875 5.9375 6.875Z" fill="#8E8E8E"/>
</svg>
