<svg width="20" height="20" viewBox="0 0 20 20" fill="none" xmlns="http://www.w3.org/2000/svg">
<path d="M19.406 4.08626L10.406 0.0862548C10.278 0.0293847 10.1395 0 9.9995 0C9.85946 0 9.72097 0.0293847 9.593 0.0862548L0.593 4.08626C0.573 4.09525 0.559 4.11025 0.539 4.12125C0.511 4.13525 0.481 4.14425 0.455 4.16125C0.433 4.17625 0.416 4.19526 0.395 4.21126C0.321903 4.26558 0.257789 4.33104 0.205 4.40526C0.185 4.43326 0.164 4.45825 0.146 4.48625C0.116237 4.5391 0.0908196 4.59429 0.0699999 4.65125C0.0609999 4.67825 0.047 4.70326 0.039 4.73026C0.0138855 4.81809 0.000766547 4.90891 0 5.00025V15.0003C0 15.3963 0.232 15.7533 0.594 15.9143L9.594 19.9143C9.724 19.9723 9.862 20.0003 10 20.0003C10.1392 19.9967 10.2762 19.964 10.402 19.9043L10.406 19.9143L19.406 15.9143C19.5829 15.8358 19.7332 15.7077 19.8386 15.5454C19.9441 15.3832 20.0002 15.1938 20 15.0003V5.00025C20.0002 4.80674 19.9441 4.61735 19.8386 4.4551C19.7332 4.29284 19.5829 4.16471 19.406 4.08626ZM10 2.09525L16.538 5.00025L10 7.90525L8.692 7.32425L3.463 5.00025L10 2.09525ZM2 14.3513V6.53925L9 9.65025V17.4613L2 14.3513ZM11 17.4613V9.65025L18 6.53925V14.3513L11 17.4613Z" fill="black"/>
</svg>
