<svg width="13" height="14" viewBox="0 0 13 14" fill="none" xmlns="http://www.w3.org/2000/svg">
<path d="M6.53969 13.167C9.73248 13.167 12.3206 10.4808 12.3206 7.16699C12.3206 3.85319 9.73248 1.16699 6.53969 1.16699C3.3469 1.16699 0.758789 3.85319 0.758789 7.16699C0.758789 10.4808 3.3469 13.167 6.53969 13.167Z" stroke="black" stroke-opacity="0.93" stroke-width="0.7" stroke-linecap="round" stroke-linejoin="round"/>
<path d="M8.2742 5.06709C7.87821 4.65609 7.18104 4.37049 6.53993 4.35249M4.80566 8.96709C5.17795 9.48309 5.87108 9.77709 6.53993 9.80169M6.53993 4.35249C5.77686 4.33089 5.09471 4.68909 5.09471 5.66709C5.09471 7.46709 8.2742 6.56709 8.2742 8.36709C8.2742 9.39369 7.42788 9.83469 6.53993 9.80169M6.53993 4.35249V3.26709M6.53993 9.80169V11.0671" stroke="black" stroke-opacity="0.93" stroke-width="0.7" stroke-linecap="round" stroke-linejoin="round"/>
</svg>
