<svg width="20" height="20" viewBox="0 0 20 20" fill="none" xmlns="http://www.w3.org/2000/svg">
<path d="M12.5 3.75001C12.5 5.39126 12.12 6.88501 11.5 8.00001C11.2375 7.80227 10.9384 7.65849 10.62 7.57696C10.3016 7.49544 9.97027 7.47778 9.64502 7.52501C9.29502 6.29751 8.50752 4.97501 7.34752 3.81376C7.15058 3.61649 6.94583 3.42717 6.73377 3.24626C7.75197 2.75341 8.86881 2.49824 10 2.50001C10.8638 2.50001 11.6938 2.64626 12.4663 2.91501C12.4888 3.18876 12.5 3.46751 12.5 3.75001ZM12.5 10C12.5 10.0913 12.495 10.1825 12.485 10.2713C13.7575 10.2475 15.235 9.83001 16.6488 9.01376C16.8922 8.87296 17.1299 8.72242 17.3613 8.56251C16.9807 6.614 15.8435 4.89568 14.1988 3.78376C14.1481 4.05254 14.0876 4.31938 14.0175 4.58376C13.5925 6.17001 12.8375 7.51626 11.9475 8.43251C12.2938 8.86126 12.5 9.40751 12.5 10ZM12.3288 10.91C12.2082 11.2178 12.0279 11.4987 11.7984 11.7366C11.5688 11.9745 11.2945 12.1647 10.9913 12.2963C11.6475 13.3838 12.7475 14.4525 14.16 15.2675C14.41 15.4125 14.6625 15.545 14.9163 15.6638C15.6614 15.0185 16.2717 14.2323 16.7121 13.3504C17.1525 12.4686 17.4143 11.5084 17.4825 10.525C17.2225 10.6163 16.9563 10.7 16.6813 10.7738C15.1013 11.1975 13.565 11.2188 12.3288 10.9113V10.91ZM10 12.5C9.43752 12.5 8.91752 12.3138 8.50002 12C7.88252 13.1125 7.50502 14.6025 7.50502 16.2388C7.50502 16.5263 7.51752 16.81 7.53877 17.0863C8.33026 17.3609 9.16223 17.5008 10 17.5C11.175 17.5 12.2875 17.23 13.2788 16.7475C13.0641 16.5651 12.8568 16.3741 12.6575 16.175C11.5013 15.0175 10.7138 13.6988 10.3625 12.475C10.245 12.4913 10.1238 12.5 10 12.5ZM7.50002 10C7.50002 9.90001 7.50627 9.80001 7.51752 9.70126C6.24252 9.72251 4.76127 10.14 3.34252 10.96C3.09994 11.1 2.86308 11.2497 2.63252 11.4088C2.81772 12.3767 3.19177 13.2987 3.73333 14.1221C4.27488 14.9455 4.97332 15.6541 5.78877 16.2075C5.83952 15.9331 5.90124 15.6608 5.97377 15.3913C6.39877 13.8075 7.14877 12.4638 8.03627 11.5475C7.68779 11.1071 7.49877 10.5616 7.50002 10ZM3.31627 9.21001C4.90002 8.78501 6.43877 8.76626 7.67627 9.07626C7.92127 8.45876 8.40502 7.96376 9.01377 7.70126C8.35877 6.60876 7.25627 5.53501 5.83752 4.71626C5.59534 4.57638 5.34764 4.44627 5.09502 4.32626C4.34904 4.97011 3.73756 5.75494 3.29567 6.63571C2.85378 7.51648 2.59019 8.47585 2.52002 9.45876C2.77752 9.36626 3.04252 9.28376 3.31627 9.21001ZM10 11.25C10.3315 11.25 10.6495 11.1183 10.8839 10.8839C11.1183 10.6495 11.25 10.3315 11.25 10C11.25 9.66849 11.1183 9.35055 10.8839 9.11613C10.6495 8.88171 10.3315 8.75001 10 8.75001C9.6685 8.75001 9.35056 8.88171 9.11614 9.11613C8.88172 9.35055 8.75002 9.66849 8.75002 10C8.75002 10.3315 8.88172 10.6495 9.11614 10.8839C9.35056 11.1183 9.6685 11.25 10 11.25Z" fill="black"/>
<path d="M10 18.75C7.67936 18.75 5.45376 17.8281 3.81282 16.1872C2.17187 14.5462 1.25 12.3206 1.25 10C1.25 7.67936 2.17187 5.45376 3.81282 3.81282C5.45376 2.17187 7.67936 1.25 10 1.25C12.3206 1.25 14.5462 2.17187 16.1872 3.81282C17.8281 5.45376 18.75 7.67936 18.75 10C18.75 12.3206 17.8281 14.5462 16.1872 16.1872C14.5462 17.8281 12.3206 18.75 10 18.75ZM10 20C12.6522 20 15.1957 18.9464 17.0711 17.0711C18.9464 15.1957 20 12.6522 20 10C20 7.34784 18.9464 4.8043 17.0711 2.92893C15.1957 1.05357 12.6522 0 10 0C7.34784 0 4.8043 1.05357 2.92893 2.92893C1.05357 4.8043 0 7.34784 0 10C0 12.6522 1.05357 15.1957 2.92893 17.0711C4.8043 18.9464 7.34784 20 10 20Z" fill="black"/>
</svg>
