<svg width="20" height="20" viewBox="0 0 20 20" fill="none" xmlns="http://www.w3.org/2000/svg">
<path d="M2.5 5.62447H11.3574C11.4867 5.9899 11.7262 6.30627 12.0427 6.53003C12.3592 6.75379 12.7374 6.87393 13.125 6.87393C13.5126 6.87393 13.8908 6.75379 14.2073 6.53003C14.5238 6.30627 14.7633 5.9899 14.8926 5.62447H17.5C17.6658 5.62447 17.8247 5.55862 17.9419 5.44141C18.0592 5.3242 18.125 5.16523 18.125 4.99947C18.125 4.83371 18.0592 4.67473 17.9419 4.55752C17.8247 4.44031 17.6658 4.37447 17.5 4.37447H14.8926C14.7633 4.00903 14.5238 3.69266 14.2073 3.46891C13.8908 3.24515 13.5126 3.125 13.125 3.125C12.7374 3.125 12.3592 3.24515 12.0427 3.46891C11.7262 3.69266 11.4867 4.00903 11.3574 4.37447H2.5C2.33424 4.37447 2.17527 4.44031 2.05806 4.55752C1.94085 4.67473 1.875 4.83371 1.875 4.99947C1.875 5.16523 1.94085 5.3242 2.05806 5.44141C2.17527 5.55862 2.33424 5.62447 2.5 5.62447ZM17.5 14.3745H14.8926C14.7633 14.009 14.5238 13.6927 14.2073 13.4689C13.8908 13.2451 13.5126 13.125 13.125 13.125C12.7374 13.125 12.3592 13.2451 12.0427 13.4689C11.7262 13.6927 11.4867 14.009 11.3574 14.3745H2.5C2.33424 14.3745 2.17527 14.4403 2.05806 14.5575C1.94085 14.6747 1.875 14.8337 1.875 14.9995C1.875 15.1652 1.94085 15.3242 2.05806 15.4414C2.17527 15.5586 2.33424 15.6245 2.5 15.6245H11.3574C11.4867 15.9899 11.7262 16.3063 12.0427 16.53C12.3592 16.7538 12.7374 16.8739 13.125 16.8739C13.5126 16.8739 13.8908 16.7538 14.2073 16.53C14.5238 16.3063 14.7633 15.9899 14.8926 15.6245H17.5C17.6658 15.6245 17.8247 15.5586 17.9419 15.4414C18.0592 15.3242 18.125 15.1652 18.125 14.9995C18.125 14.8337 18.0592 14.6747 17.9419 14.5575C17.8247 14.4403 17.6658 14.3745 17.5 14.3745ZM17.5 9.37447H8.64258C8.51325 9.00903 8.27384 8.69266 7.9573 8.46891C7.64076 8.24515 7.26264 8.125 6.875 8.125C6.48736 8.125 6.10924 8.24515 5.7927 8.46891C5.47616 8.69266 5.23675 9.00903 5.10742 9.37447H2.5C2.33424 9.37447 2.17527 9.44031 2.05806 9.55752C1.94085 9.67474 1.875 9.83371 1.875 9.99947C1.875 10.1652 1.94085 10.3242 2.05806 10.4414C2.17527 10.5586 2.33424 10.6245 2.5 10.6245H5.10742C5.23675 10.9899 5.47616 11.3063 5.7927 11.53C6.10924 11.7538 6.48736 11.8739 6.875 11.8739C7.26264 11.8739 7.64076 11.7538 7.9573 11.53C8.27384 11.3063 8.51325 10.9899 8.64258 10.6245H17.5C17.6658 10.6245 17.8247 10.5586 17.9419 10.4414C18.0592 10.3242 18.125 10.1652 18.125 9.99947C18.125 9.83371 18.0592 9.67474 17.9419 9.55752C17.8247 9.44031 17.6658 9.37447 17.5 9.37447Z" fill="black"/>
</svg>
