<svg width="13" height="13" viewBox="0 0 13 13" fill="none" xmlns="http://www.w3.org/2000/svg">
<path d="M6.5 0C5.21442 0 3.95772 0.381218 2.8888 1.09545C1.81988 1.80968 0.986756 2.82484 0.494786 4.01256C0.00281635 5.20028 -0.125905 6.50721 0.124899 7.76809C0.375703 9.02896 0.994767 10.1872 1.90381 11.0962C2.81285 12.0052 3.97104 12.6243 5.23192 12.8751C6.49279 13.1259 7.79973 12.9972 8.98744 12.5052C10.1752 12.0132 11.1903 11.1801 11.9046 10.1112C12.6188 9.04229 13 7.78558 13 6.5C12.9983 4.7766 12.313 3.12426 11.0944 1.90563C9.87574 0.687006 8.2234 0.00165473 6.5 0ZM6.5 12C5.41221 12 4.34884 11.6774 3.44437 11.0731C2.5399 10.4687 1.83495 9.60975 1.41867 8.60476C1.00238 7.59977 0.893465 6.4939 1.10568 5.427C1.3179 4.36011 1.84173 3.3801 2.61092 2.61091C3.3801 1.84172 4.36011 1.3179 5.42701 1.10568C6.4939 0.893462 7.59977 1.00238 8.60476 1.41866C9.60976 1.83494 10.4687 2.53989 11.0731 3.44436C11.6774 4.34883 12 5.4122 12 6.5C11.9983 7.95818 11.4184 9.35617 10.3873 10.3873C9.35617 11.4184 7.95819 11.9983 6.5 12ZM7.25 9.75C7.25 9.89834 7.20602 10.0433 7.1236 10.1667C7.04119 10.29 6.92406 10.3861 6.78701 10.4429C6.64997 10.4997 6.49917 10.5145 6.35368 10.4856C6.2082 10.4566 6.07456 10.3852 5.96967 10.2803C5.86478 10.1754 5.79335 10.0418 5.76441 9.89632C5.73548 9.75083 5.75033 9.60003 5.80709 9.46299C5.86386 9.32594 5.95999 9.20881 6.08333 9.1264C6.20666 9.04399 6.35167 9 6.5 9C6.69892 9 6.88968 9.07902 7.03033 9.21967C7.17098 9.36032 7.25 9.55109 7.25 9.75ZM8.75 5.25C8.75 5.75984 8.57685 6.25457 8.25891 6.65313C7.94097 7.05169 7.4971 7.33045 7 7.44375V7.5C7 7.63261 6.94732 7.75979 6.85356 7.85355C6.75979 7.94732 6.63261 8 6.5 8C6.36739 8 6.24022 7.94732 6.14645 7.85355C6.05268 7.75979 6 7.63261 6 7.5V7C6 6.86739 6.05268 6.74021 6.14645 6.64645C6.24022 6.55268 6.36739 6.5 6.5 6.5C6.74723 6.5 6.9889 6.42669 7.19447 6.28934C7.40003 6.15199 7.56024 5.95676 7.65485 5.72835C7.74946 5.49995 7.77422 5.24861 7.72598 5.00614C7.67775 4.76366 7.5587 4.54093 7.38389 4.36612C7.20907 4.1913 6.98634 4.07225 6.74387 4.02402C6.50139 3.97579 6.25006 4.00054 6.02165 4.09515C5.79324 4.18976 5.59802 4.34998 5.46067 4.55554C5.32331 4.7611 5.25 5.00277 5.25 5.25C5.25 5.38261 5.19732 5.50979 5.10356 5.60355C5.00979 5.69732 4.88261 5.75 4.75 5.75C4.61739 5.75 4.49022 5.69732 4.39645 5.60355C4.30268 5.50979 4.25 5.38261 4.25 5.25C4.25 4.65326 4.48706 4.08097 4.90901 3.65901C5.33097 3.23705 5.90327 3 6.5 3C7.09674 3 7.66904 3.23705 8.09099 3.65901C8.51295 4.08097 8.75 4.65326 8.75 5.25Z" fill="black"/>
</svg>
