<svg width="17" height="16" viewBox="0 0 17 16" fill="none" xmlns="http://www.w3.org/2000/svg">
<path d="M1.85404 0.145655C1.80755 0.099167 1.75236 0.0622909 1.69162 0.0371318C1.63088 0.0119727 1.56578 -0.000976562 1.50004 -0.000976562C1.4343 -0.000976563 1.3692 0.0119727 1.30846 0.0371318C1.24772 0.0622909 1.19253 0.099167 1.14604 0.145655C1.09955 0.192143 1.06268 0.247332 1.03752 0.308072C1.01236 0.368811 0.999408 0.433911 0.999408 0.499655C0.999408 0.565399 1.01236 0.630499 1.03752 0.691238C1.06268 0.751978 1.09955 0.807167 1.14604 0.853655L6.30304 6.00965C5.87229 6.03312 5.44909 6.13266 5.05304 6.30365C4.90855 5.95109 4.6718 5.64393 4.36765 5.41444C4.0635 5.18494 3.70316 5.04157 3.32448 4.99938C2.9458 4.9572 2.56275 5.01775 2.21555 5.17468C1.86834 5.33161 1.5698 5.57913 1.35126 5.89125C1.13272 6.20337 1.00225 6.56857 0.973557 6.94851C0.94486 7.32845 1.01899 7.70911 1.18817 8.05052C1.35734 8.39192 1.61532 8.68148 1.93501 8.88878C2.25471 9.09608 2.62432 9.21348 3.00504 9.22865C3.00189 9.2876 3.00022 9.34662 3.00004 9.40565V11.4387C3.00004 12.2987 3.69804 12.9967 4.55904 12.9967H9.00004V11.7497C9.00004 11.5897 8.91704 11.4137 8.71904 11.2597C8.48257 11.0865 8.19608 10.9952 7.90304 10.9997H6.50104C6.36843 10.9997 6.24125 10.947 6.14749 10.8532C6.05372 10.7594 6.00104 10.6323 6.00104 10.4997C6.00104 10.367 6.05372 10.2399 6.14749 10.1461C6.24125 10.0523 6.36843 9.99965 6.50104 9.99965H7.90304C8.43804 9.99965 8.94604 10.1717 9.33104 10.4697C9.71604 10.7667 10.001 11.2147 10.001 11.7497V12.9967H11.743C12.17 12.9967 12.557 12.8247 12.839 12.5467L16.146 15.8537C16.2399 15.9475 16.3673 16.0003 16.5 16.0003C16.6328 16.0003 16.7602 15.9475 16.854 15.8537C16.9479 15.7598 17.0007 15.6324 17.0007 15.4997C17.0007 15.3669 16.9479 15.2395 16.854 15.1457L1.85404 0.145655ZM15.907 10.5407C15.5061 10.9427 14.9911 11.2115 14.432 11.3107L9.12504 6.00365H9.80504C10.275 6.00365 10.723 6.09565 11.133 6.26365C11.1594 6.2192 11.1854 6.17453 11.211 6.12965C11.32 5.93965 11.443 5.72566 11.589 5.57565L10.036 4.02365C9.81843 3.80604 9.69618 3.5109 9.69618 3.20315C9.69618 3.05077 9.72619 2.89989 9.7845 2.7591C9.84282 2.61832 9.92829 2.4904 10.036 2.38265C10.1438 2.27491 10.2717 2.18943 10.4125 2.13112C10.5533 2.07281 10.7042 2.04279 10.8565 2.04279C11.1643 2.04279 11.4594 2.16504 11.677 2.38265L15.907 6.61265C16.4278 7.1336 16.7204 7.84005 16.7204 8.57665C16.7204 9.31326 16.4278 10.0197 15.907 10.5407Z" fill="black"/>
</svg>
