<svg width="20" height="16" viewBox="0 0 20 16" fill="none" xmlns="http://www.w3.org/2000/svg">
<path d="M16.9449 0.328148C16.5957 0.329984 16.1381 0.448343 15.579 0.713929C11.5312 0.431663 6.64606 1.02151 3.39013 2.04428C1.03048 0.953929 0.63997 2.02764 1.71239 3.4578C0.400048 7.35362 0.975361 11.3126 2.37106 14.1449C1.94099 16.0055 3.03376 15.9221 3.97935 15.1781C10.65 15.5336 14.9883 14.5328 17.6465 12.4959C18.5844 13.2471 19.2739 12.2613 18.8914 11.0562C19.3571 8.25112 18.5371 4.52065 17.4815 1.92416C18.0034 1.00725 17.7949 0.323577 16.9449 0.328148ZM2.9845 3.37346C5.04114 5.75803 5.07872 11.2008 3.83403 14.4439C4.10927 10.8927 3.93188 5.70666 2.9845 3.37342V3.37346Z" fill="black"/>
</svg>
