<svg width="15" height="15" viewBox="0 0 15 15" fill="none" xmlns="http://www.w3.org/2000/svg">
<path d="M2.5 13.125C2.32292 13.125 2.17458 13.065 2.055 12.945C1.935 12.8254 1.875 12.6771 1.875 12.5C1.875 12.3229 1.935 12.1746 2.055 12.055C2.17458 11.935 2.32292 11.875 2.5 11.875H3.125V2.5C3.125 2.32292 3.18479 2.17437 3.30438 2.05437C3.42438 1.93479 3.57292 1.875 3.75 1.875H8.125C8.30208 1.875 8.45063 1.93479 8.57063 2.05437C8.69021 2.17437 8.75 2.32292 8.75 2.5H11.25C11.4271 2.5 11.5754 2.55979 11.695 2.67938C11.815 2.79938 11.875 2.94792 11.875 3.125V11.875H12.5C12.6771 11.875 12.8254 11.935 12.945 12.055C13.065 12.1746 13.125 12.3229 13.125 12.5C13.125 12.6771 13.065 12.8254 12.945 12.945C12.8254 13.065 12.6771 13.125 12.5 13.125H11.25C11.0729 13.125 10.9246 13.065 10.805 12.945C10.685 12.8254 10.625 12.6771 10.625 12.5V3.75H8.75V12.5C8.75 12.6771 8.69021 12.8254 8.57063 12.945C8.45063 13.065 8.30208 13.125 8.125 13.125H2.5ZM7.5 7.5C7.5 7.32292 7.44021 7.17437 7.32063 7.05437C7.20063 6.93479 7.05208 6.875 6.875 6.875C6.69792 6.875 6.54958 6.93479 6.43 7.05437C6.31 7.17437 6.25 7.32292 6.25 7.5C6.25 7.67708 6.31 7.82542 6.43 7.945C6.54958 8.065 6.69792 8.125 6.875 8.125C7.05208 8.125 7.20063 8.065 7.32063 7.945C7.44021 7.82542 7.5 7.67708 7.5 7.5Z" fill="#8E8E8E"/>
</svg>
