<svg width="200" height="200" viewBox="0 0 200 200" fill="none" xmlns="http://www.w3.org/2000/svg">
<path d="M141.675 25.8004L142.637 27.7129L149.837 46.8754C150.4 48.3754 151.587 49.5754 153.1 50.1379L171.6 57.0879C179.725 60.1254 184.087 68.8004 181.925 77.0129L181.4 78.6379L172.8 97.6754C172.469 98.4014 172.298 99.19 172.298 99.9879C172.298 100.786 172.469 101.574 172.8 102.3L180.975 120.3C182.685 124.073 182.937 128.347 181.681 132.294C180.425 136.242 177.751 139.584 174.175 141.675L172.262 142.638L153.1 149.838C152.358 150.12 151.684 150.556 151.123 151.119C150.563 151.681 150.129 152.357 149.85 153.1L142.9 171.6C141.445 175.485 138.6 178.691 134.917 180.598C131.234 182.505 126.974 182.978 122.962 181.925L121.337 181.4L102.3 172.8C101.574 172.469 100.785 172.298 99.9874 172.298C99.1896 172.298 98.401 172.469 97.6749 172.8L79.6874 180.975C75.9144 182.686 71.6414 182.937 67.6937 181.682C63.746 180.426 60.4037 177.751 58.3124 174.175L57.3499 172.263L50.1374 153.1C49.8558 152.358 49.4191 151.684 48.8566 151.124C48.294 150.563 47.6185 150.129 46.8749 149.85L28.3749 142.9C24.4909 141.445 21.2848 138.601 19.3774 134.918C17.47 131.235 16.997 126.975 18.0499 122.963L18.5749 121.338L27.1874 102.3C27.5176 101.574 27.6884 100.786 27.6884 99.9879C27.6884 99.1902 27.5176 98.4017 27.1874 97.6754L18.9999 79.6879C17.2884 75.9163 17.0349 71.6444 18.2885 67.6968C19.542 63.7493 22.2136 60.4062 25.7874 58.3129L27.6999 57.3504L46.8749 50.1254C47.6197 49.8453 48.296 49.4093 48.8587 48.8467C49.4213 48.284 49.8573 47.6077 50.1374 46.8629L57.0874 28.3629C58.5424 24.4815 61.3849 21.2775 65.0652 19.3703C68.7456 17.4632 73.0024 16.9885 77.0124 18.0379L78.6374 18.5629L97.6749 27.1754C98.4012 27.5056 99.1897 27.6764 99.9874 27.6764C100.785 27.6764 101.574 27.5056 102.3 27.1754L120.3 19.0004C124.072 17.2889 128.344 17.0354 132.291 18.2889C136.239 19.5425 139.582 22.2141 141.675 25.7879V25.8004ZM127.05 71.3129L87.2124 116.813L72.6874 102.288C71.6322 101.278 70.2234 100.722 68.7629 100.738C67.3024 100.754 65.9063 101.341 64.8735 102.374C63.8408 103.407 63.2534 104.803 63.2373 106.263C63.2212 107.724 63.7777 109.133 64.7874 110.188L83.5374 128.938C84.0786 129.478 84.7247 129.901 85.4359 130.181C86.147 130.461 86.9081 130.592 87.672 130.567C88.436 130.541 89.1865 130.358 89.8771 130.031C90.5678 129.704 91.1839 129.238 91.6874 128.663L135.437 78.6629C136.328 77.5384 136.752 76.1143 136.622 74.6856C136.492 73.2569 135.817 71.9331 134.737 70.9884C133.657 70.0437 132.256 69.5504 130.822 69.6108C129.389 69.6713 128.034 70.2807 127.037 71.3129H127.05Z" fill="#0000FF"/>
</svg>
