<svg width="20" height="20" viewBox="0 0 20 20" fill="none" xmlns="http://www.w3.org/2000/svg">
<path d="M18.457 8.04687H13.457C13.3711 8.04687 13.3008 8.11719 13.3008 8.20312V9.14062C13.3008 9.22656 13.3711 9.29687 13.457 9.29687H18.457C18.543 9.29687 18.6133 9.22656 18.6133 9.14062V8.20312C18.6133 8.11719 18.543 8.04687 18.457 8.04687ZM15.8398 10.7031H13.457C13.3711 10.7031 13.3008 10.7734 13.3008 10.8594V11.7969C13.3008 11.8828 13.3711 11.9531 13.457 11.9531H15.8398C15.9258 11.9531 15.9961 11.8828 15.9961 11.7969V10.8594C15.9961 10.7734 15.9258 10.7031 15.8398 10.7031ZM9.32227 6.29883H8.47656C8.35547 6.29883 8.25781 6.39648 8.25781 6.51758V11.3613C8.25781 11.4316 8.29102 11.4961 8.34766 11.5371L11.2559 13.6582C11.3535 13.7285 11.4902 13.709 11.5605 13.6113L12.0625 12.9258V12.9238C12.1328 12.8262 12.1113 12.6895 12.0137 12.6191L9.53906 10.8301V6.51758C9.54102 6.39648 9.44141 6.29883 9.32227 6.29883Z" fill="black"/>
<path d="M15.7188 13.1617H14.5899C14.4805 13.1617 14.377 13.2184 14.3184 13.3121C14.0703 13.7047 13.7813 14.068 13.4492 14.4C12.877 14.9723 12.211 15.4215 11.4707 15.734C10.7031 16.0582 9.88869 16.2223 9.04884 16.2223C8.20704 16.2223 7.39259 16.0582 6.62697 15.734C5.88673 15.4215 5.22072 14.9723 4.64845 14.4C4.07619 13.8277 3.62697 13.1617 3.31447 12.4215C2.99025 11.6559 2.82619 10.8414 2.82619 9.99962C2.82619 9.15782 2.99025 8.34532 3.31447 7.57774C3.62697 6.83751 4.07619 6.17149 4.64845 5.59923C5.22072 5.02696 5.88673 4.57774 6.62697 4.26524C7.39259 3.94103 8.209 3.77696 9.04884 3.77696C9.89064 3.77696 10.7051 3.94103 11.4707 4.26524C12.211 4.57774 12.877 5.02696 13.4492 5.59923C13.7813 5.93126 14.0703 6.29454 14.3184 6.68712C14.377 6.78087 14.4805 6.83751 14.5899 6.83751H15.7188C15.8535 6.83751 15.9395 6.69688 15.8789 6.57774C14.6055 4.04454 12.0235 2.39806 9.14064 2.36485C4.91993 2.31212 1.41408 5.7672 1.40626 9.98399C1.39845 14.2086 4.82228 17.6363 9.04689 17.6363C11.9668 17.6363 14.5918 15.984 15.8789 13.4215C15.9395 13.3024 15.8516 13.1617 15.7188 13.1617Z" fill="black"/>
</svg>
