<svg width="64" height="64" viewBox="0 0 64 64" fill="none" xmlns="http://www.w3.org/2000/svg">
<path d="M59.251 2H48.034C47.067 2 46.284 2.852 46.284 3.483V5.285C46.284 5.812 46.833 6.723 47.576 7.012V28.952C47.3328 28.8549 47.0738 28.8034 46.812 28.8H5.389C4.071 28.8 3.00001 29.992 3.00001 31.457C3.00001 32.115 3.22501 32.711 3.58301 33.177C3.20386 33.6697 2.99882 34.2743 3.00001 34.896C3.00001 36.362 4.071 37.554 5.389 37.554H7.32501C7.89501 41.378 10.087 44.816 13.382 47.418C13.658 48.48 13.808 49.589 13.808 50.734C13.808 54.332 12.34 56.998 9.97501 59.197H8.596C7.8 59.197 7.15301 59.824 7.15301 60.598C7.15301 61.372 7.8 62 8.596 62H48.993C49.79 62 50.436 61.373 50.436 60.599C50.436 59.825 49.79 59.198 48.993 59.198H47.616C45.251 56.999 43.782 54.333 43.782 50.735C43.782 50.212 43.817 49.696 43.878 49.187C51.209 49.028 57.114 43.178 57.284 35.914H58.265C59.063 35.914 59.707 34.932 59.707 34.411V7.012C60.451 6.723 61 5.813 61 5.285V3.483C61 2.852 60.218 2 59.251 2ZM4.89201 34.896C4.89201 34.449 5.155 34.115 5.389 34.115H44.865C45.0243 34.7452 45.4007 35.299 45.928 35.679H5.389C5.154 35.679 4.89201 35.344 4.89201 34.896ZM28.796 50.567C18.781 50.567 10.488 44.886 9.21801 37.553H46.811C47.006 37.553 47.194 37.519 47.375 37.47H48.389C47.169 44.845 38.848 50.567 28.796 50.567ZM50.312 34.038C50.3569 33.8418 50.38 33.6413 50.381 33.44C50.381 32.629 50.026 31.908 49.468 31.399V7.109H57.817V34.038H50.312Z" fill="black"/>
<path d="M53.6422 12.2381C55.5092 12.2381 57.0212 10.7381 57.0212 8.89014H50.2642C50.2642 10.7381 51.7762 12.2381 53.6422 12.2381Z" fill="black"/>
</svg>
