<svg width="18" height="18" viewBox="0 0 18 18" fill="none" xmlns="http://www.w3.org/2000/svg">
<path d="M2.25 6H7.5C7.94501 6 8.38002 5.86804 8.75003 5.62081C9.12004 5.37357 9.40843 5.02217 9.57873 4.61104C9.74903 4.19991 9.79358 3.74751 9.70677 3.31105C9.61995 2.87459 9.40566 2.47368 9.09099 2.15901C8.77632 1.84434 8.37541 1.63005 7.93895 1.54323C7.5025 1.45642 7.0501 1.50097 6.63896 1.67127C6.22783 1.84157 5.87643 2.12996 5.62919 2.49997C5.38196 2.86998 5.25 3.30499 5.25 3.75M3 12H11.25C11.695 12 12.13 12.132 12.5 12.3792C12.87 12.6264 13.1584 12.9778 13.3287 13.389C13.499 13.8001 13.5436 14.2525 13.4568 14.689C13.37 15.1254 13.1557 15.5263 12.841 15.841C12.5263 16.1557 12.1254 16.37 11.689 16.4568C11.2525 16.5436 10.8001 16.499 10.389 16.3287C9.97783 16.1584 9.62643 15.87 9.37919 15.5C9.13196 15.13 9 14.695 9 14.25M1.5 9H14.25C14.695 9 15.13 8.86804 15.5 8.62081C15.87 8.37357 16.1584 8.02217 16.3287 7.61104C16.499 7.1999 16.5436 6.74751 16.4568 6.31105C16.37 5.87459 16.1557 5.47368 15.841 5.15901C15.5263 4.84434 15.1254 4.63005 14.689 4.54323C14.2525 4.45642 13.8001 4.50098 13.389 4.67127C12.9778 4.84157 12.6264 5.12996 12.3792 5.49997C12.132 5.86998 12 6.30499 12 6.75" stroke="black" stroke-width="2" stroke-linecap="round" stroke-linejoin="round"/>
</svg>
